<?xml version="1.0" encoding="utf-8"?>
<!-- Generator: Adobe Illustrator 27.0.0, SVG Export Plug-In . SVG Version: 6.00 Build 0)  -->
<svg version="1.1" id="Layer_1" xmlns="http://www.w3.org/2000/svg" xmlns:xlink="http://www.w3.org/1999/xlink" x="0px" y="0px"
	 viewBox="0 0 320 120" style="enable-background:new 0 0 320 120;" xml:space="preserve">
<style type="text/css">
	.st0{fill:#F5F6FA;}
	.st1{fill:#8B80F8;}
	.st2{fill:#AF8EFF;}
</style>
<g id="그룹_1274" transform="translate(-20 -220)">
	<g id="빼기_1" transform="translate(1310 209)">
		<path class="st0" d="M-1070.5,130.5l-203.5,0c-4.1,0-8-1.6-11-4.5c-2.9-2.9-4.5-6.8-4.5-11V27c0-4.1,1.6-8,4.5-11s6.8-4.5,11-4.5
			h203.5c0.1,2.9,1.3,5.6,3.4,7.6c2.2,2.2,5.1,3.4,8.1,3.4c6.2,0,11.2-4.9,11.5-11h61.5c4.1,0,8,1.6,11,4.5c2.9,2.9,4.5,6.8,4.5,11
			v88c0,4.1-1.6,8-4.5,11c-2.9,2.9-6.8,4.5-11,4.5h-61.5c-0.1-2.9-1.3-5.6-3.4-7.6c-2.2-2.2-5.1-3.4-8.1-3.4
			C-1065.2,119.5-1070.2,124.4-1070.5,130.5z"/>
		<path class="st1" d="M-1071,130c0.5-6.2,5.7-11,12-11c3.2,0,6.2,1.2,8.5,3.5c2,2,3.2,4.7,3.5,7.5h61c4,0,7.8-1.6,10.6-4.4
			c2.8-2.8,4.4-6.6,4.4-10.6V27c0-4-1.6-7.8-4.4-10.6c-2.8-2.8-6.6-4.4-10.6-4.4h-61c-0.5,6.2-5.7,11-12,11c-3.2,0-6.2-1.2-8.5-3.5
			c-2-2-3.2-4.7-3.5-7.5h-203c-4,0-7.8,1.6-10.6,4.4c-2.8,2.8-4.4,6.6-4.4,10.6v88c0,4,1.6,7.8,4.4,10.6c2.8,2.8,6.6,4.4,10.6,4.4
			L-1071,130 M-1070,131l-204,0c-4.3,0-8.3-1.7-11.3-4.7c-3-3-4.7-7-4.7-11.3V27c0-4.3,1.7-8.3,4.7-11.3c3-3,7-4.7,11.3-4.7h204
			c0,2.9,1.1,5.7,3.2,7.8c2.1,2.1,4.8,3.2,7.8,3.2c6.1,0,11-4.9,11-11h62c4.3,0,8.3,1.7,11.3,4.7c3,3,4.7,7,4.7,11.3v88
			c0,4.3-1.7,8.3-4.7,11.3c-3,3-7,4.7-11.3,4.7h-62c0-2.9-1.1-5.7-3.2-7.8c-2.1-2.1-4.8-3.2-7.8-3.2
			C-1065.1,120-1070,124.9-1070,131L-1070,131z"/>
	</g>
	<g id="그룹_1198" transform="translate(250.385 233.612)">
		<rect id="사각형_4661" x="0" y="0" class="st1" width="1.8" height="1.8"/>
		<path id="패스_2330" class="st1" d="M1.8,90.5H0v-2.6h1.8V90.5z M1.8,85.3H0v-2.6h1.8V85.3z M1.8,80.2H0v-2.6h1.8V80.2z M1.8,75
			H0v-2.6h1.8V75z M1.8,69.8H0v-2.6h1.8V69.8z M1.8,64.7H0v-2.6h1.8V64.7z M1.8,59.5H0v-2.6h1.8V59.5z M1.8,54.3H0v-2.6h1.8V54.3z
			 M1.8,49.1H0v-2.6h1.8V49.1z M1.8,44H0v-2.6h1.8V44z M1.8,38.8H0v-2.6h1.8V38.8z M1.8,33.6H0V31h1.8V33.6z M1.8,28.4H0v-2.6h1.8
			V28.4z M1.8,23.3H0v-2.6h1.8V23.3z M1.8,18.1H0v-2.6h1.8V18.1z M1.8,12.9H0v-2.6h1.8V12.9z M1.8,7.8H0V5.2h1.8V7.8z"/>
		<rect id="사각형_4662" x="0" y="93.3" class="st1" width="1.8" height="1.8"/>
	</g>
	<g id="그룹_1185" transform="translate(273.622 235)">
		<rect id="사각형_4663" x="0" class="st2" width="30.6" height="2.8"/>
		<rect id="사각형_4664" x="0" y="4.4" class="st2" width="30.6" height="3.4"/>
		<rect id="사각형_4665" x="0" y="9" class="st2" width="30.6" height="1.3"/>
		<rect id="사각형_4666" x="0" y="11.7" class="st2" width="30.6" height="1.3"/>
		<rect id="사각형_4667" x="0" y="41.2" class="st2" width="30.6" height="1.3"/>
		<rect id="사각형_4668" x="0" y="14.5" class="st2" width="30.6" height="3.4"/>
		<rect id="사각형_4669" x="0" y="48.3" class="st2" width="30.6" height="0.7"/>
		<rect id="사각형_4670" x="0" y="50.5" class="st2" width="30.6" height="1.1"/>
		<rect id="사각형_4671" x="0" y="52.5" class="st2" width="30.6" height="3"/>
		<rect id="사각형_4672" x="0" y="56.1" class="st2" width="30.6" height="1.8"/>
		<rect id="사각형_4673" x="0" y="63.6" class="st2" width="30.6" height="1.8"/>
		<rect id="사각형_4674" x="0" y="58.8" class="st2" width="30.6" height="3.6"/>
		<rect id="사각형_4675" x="0" y="17.4" class="st2" width="30.6" height="3.4"/>
		<rect id="사각형_4676" x="0" y="43.8" class="st2" width="30.6" height="3.4"/>
		<rect id="사각형_4677" x="0" y="22.2" class="st2" width="30.6" height="1.2"/>
		<rect id="사각형_4678" x="0" y="24.5" class="st2" width="30.6" height="3.5"/>
		<rect id="사각형_4679" x="0" y="28.9" class="st2" width="30.6" height="2.5"/>
		<rect id="사각형_4680" x="0" y="32.6" class="st2" width="30.6" height="2.5"/>
		<rect id="사각형_4681" x="0" y="36.3" class="st2" width="30.6" height="1"/>
		<rect id="사각형_4682" x="0" y="38.4" class="st2" width="30.6" height="2"/>
		<rect id="사각형_4683" x="0" y="82.7" class="st2" width="30.6" height="1.3"/>
		<rect id="사각형_4684" x="0" y="85.7" class="st2" width="30.6" height="3.4"/>
		<rect id="사각형_4685" x="0" y="66.4" class="st2" width="30.6" height="3.5"/>
		<rect id="사각형_4686" x="0" y="70.9" class="st2" width="30.6" height="2.5"/>
		<rect id="사각형_4687" x="0" y="73" class="st2" width="30.6" height="2.5"/>
		<rect id="사각형_4688" x="0" y="77.1" class="st2" width="30.6" height="1"/>
		<rect id="사각형_4689" x="0" y="79.5" class="st2" width="30.6" height="2"/>
	</g>
</g>
</svg>
