<svg xmlns="http://www.w3.org/2000/svg" width="285.917" height="130.28" viewBox="0 0 285.917 130.28">
  <g id="point" transform="translate(-37.042 -314)">
    <g id="그룹_1178" data-name="그룹 1178" transform="translate(-2.958 -21)">
      <g id="_4" data-name="4" transform="translate(40 335)">
        <g id="그룹_1175" data-name="그룹 1175" transform="translate(0)" style="mix-blend-mode: multiply;isolation: isolate">
          <path id="패스_88597" data-name="패스 88597" d="M315.448,266.916V229.354a10.07,10.07,0,0,0-4.064-8.179,8.844,8.844,0,0,0-5.173-1.681H43.156c-5.1,0-9.239,4.414-9.239,9.86v37.562h.071c8.261,0,14.956,7.146,14.956,15.964,0,7.8-5.243,14.292-12.167,15.682a13.733,13.733,0,0,1-2.789.282h-.071v37.562c0,5.446,4.135,9.86,9.239,9.86H306.21c5.1,0,9.238-4.414,9.238-9.86V298.843c-.3-9.544-14.886-7.174-14.886-15.964S315.448,272.714,315.448,266.916ZM134.433,341.222h-1.249v-5.4h1.249Zm0-11.128h-1.249v-5.4h1.249Zm0-11.127h-1.249v-5.4h1.249Zm0-11.128h-1.249v-5.4h1.249Zm0-11.126h-1.249v-5.4h1.249Zm0-11.128h-1.249v-5.4h1.249Zm0-11.128h-1.249v-5.4h1.249Zm0-11.127h-1.249v-5.4h1.249Zm0-11.128h-1.249v-5.4h1.249Zm0-11.127h-1.249v-5.4h1.249Zm0-11.127h-1.249v-5.4h1.249Z" transform="translate(-29.531 -215.985)" fill="#fff" opacity="0"/>
          <path id="패스_88598" data-name="패스 88598" d="M315.322,266.761V229.253a10.031,10.031,0,0,0-4.065-8.167,8.819,8.819,0,0,0-5.172-1.678H43.046c-5.1,0-9.237,4.407-9.237,9.846v37.509h.07c8.261,0,14.956,7.136,14.956,15.941,0,7.792-5.248,14.25-12.167,15.659a13.987,13.987,0,0,1-2.789.282h-.07V336.15c0,5.439,4.135,9.846,9.237,9.846H306.084c5.1,0,9.238-4.406,9.238-9.846V298.643c-.475-9.338-14.885-7.165-14.885-15.941S315.143,272.435,315.322,266.761Zm-181,74.2h-1.249v-5.393h1.249Zm0-11.112h-1.249v-5.392h1.249Zm0-11.111h-1.249v-5.392h1.249Zm0-11.112h-1.249v-5.393h1.249Zm0-11.111h-1.249v-5.393h1.249Zm0-11.112h-1.249v-5.392h1.249Zm0-11.112h-1.249V268.9h1.249Zm0-11.111h-1.249v-5.393h1.249Zm0-11.112h-1.249v-5.392h1.249Zm0-11.111h-1.249v-5.392h1.249Zm0-11.111h-1.249v-5.392h1.249Z" transform="translate(-29.517 -215.974)" fill="#fbfbfb" opacity="0.022"/>
          <path id="패스_88599" data-name="패스 88599" d="M315.2,266.606V229.152A10.013,10.013,0,0,0,311.131,221a8.829,8.829,0,0,0-5.172-1.676H42.937c-5.1,0-9.237,4.4-9.237,9.832v37.454h.07c8.26,0,14.955,7.126,14.955,15.918,0,7.781-5.247,14.23-12.166,15.637a13.989,13.989,0,0,1-2.789.282H33.7V335.9c0,5.432,4.135,9.832,9.237,9.832H305.959c5.1,0,9.237-4.4,9.237-9.832V298.443c-.647-9.131-14.885-7.155-14.885-15.919S314.838,272.154,315.2,266.606ZM134.2,340.7h-1.249v-5.384H134.2Zm0-11.1h-1.249V324.22H134.2Zm0-11.1h-1.249v-5.385H134.2Zm0-11.1h-1.249v-5.383H134.2Zm0-11.095h-1.249v-5.385H134.2Zm0-11.1h-1.249v-5.384H134.2Zm0-11.1h-1.249v-5.384H134.2Zm0-11.1h-1.249v-5.384H134.2Zm0-11.1h-1.249v-5.385H134.2Zm0-11.1h-1.249v-5.385H134.2Zm0-11.1h-1.249v-5.384H134.2Z" transform="translate(-29.504 -215.964)" fill="#f8f7f7" opacity="0.043"/>
          <path id="패스_88600" data-name="패스 88600" d="M315.069,266.451v-37.4a9.993,9.993,0,0,0-4.064-8.144,8.836,8.836,0,0,0-5.172-1.674H42.828c-5.1,0-9.236,4.394-9.236,9.818v37.4h.07c8.259,0,14.953,7.116,14.953,15.9,0,7.77-5.247,14.209-12.165,15.615a14.052,14.052,0,0,1-2.788.28h-.07v37.4c0,5.422,4.134,9.818,9.236,9.818H305.833c5.1,0,9.236-4.4,9.236-9.818v-37.4c-.818-8.924-14.883-7.144-14.883-15.9S314.534,271.875,315.069,266.451ZM134.088,340.439h-1.248v-5.376h1.248Zm0-11.08h-1.248v-5.377h1.248Zm0-11.08h-1.248V312.9h1.248Zm0-11.08h-1.248v-5.377h1.248Zm0-11.08h-1.248v-5.377h1.248Zm0-11.08h-1.248v-5.377h1.248Zm0-11.08h-1.248v-5.377h1.248Zm0-11.08h-1.248V257.5h1.248Zm0-11.081h-1.248v-5.376h1.248Zm0-11.079h-1.248v-5.377h1.248Zm0-11.08h-1.248v-5.377h1.248Z" transform="translate(-29.491 -215.953)" fill="#f4f4f4" opacity="0.065"/>
          <path id="패스_88601" data-name="패스 88601" d="M314.943,266.3V228.949a9.973,9.973,0,0,0-4.063-8.132,8.841,8.841,0,0,0-5.172-1.671H42.718a9.531,9.531,0,0,0-9.235,9.8V266.3h.07c8.259,0,14.952,7.1,14.952,15.872,0,7.759-5.246,14.189-12.164,15.593a14.043,14.043,0,0,1-2.788.28h-.07v37.346a9.531,9.531,0,0,0,9.235,9.8h262.99a9.531,9.531,0,0,0,9.235-9.8V298.041c-.99-8.717-14.882-7.133-14.882-15.872S314.229,271.6,314.943,266.3ZM133.973,340.178h-1.249v-5.369h1.249Zm0-11.064h-1.249v-5.368h1.249Zm0-11.063h-1.249v-5.369h1.249Zm0-11.065h-1.249v-5.368h1.249Zm0-11.063h-1.249v-5.369h1.249Zm0-11.064h-1.249v-5.369h1.249Zm0-11.064h-1.249v-5.369h1.249Zm0-11.064h-1.249v-5.368h1.249Zm0-11.064h-1.249V246.3h1.249Zm0-11.063h-1.249v-5.369h1.249Zm0-11.064h-1.249v-5.369h1.249Z" transform="translate(-29.477 -215.942)" fill="#f1f0f0" opacity="0.087"/>
          <path id="패스_88602" data-name="패스 88602" d="M314.817,266.142V228.848a9.956,9.956,0,0,0-4.064-8.121,8.851,8.851,0,0,0-5.171-1.669H42.609a9.523,9.523,0,0,0-9.235,9.789v37.294h.071c8.258,0,14.951,7.094,14.951,15.849a15.652,15.652,0,0,1-12.164,15.571,14.043,14.043,0,0,1-2.787.279h-.071v37.294a9.523,9.523,0,0,0,9.235,9.789H305.582a9.523,9.523,0,0,0,9.235-9.789V297.84c-1.161-8.51-14.882-7.123-14.882-15.85S313.926,271.315,314.817,266.142ZM133.858,339.917h-1.249v-5.361h1.249Zm0-11.048h-1.249v-5.361h1.249Zm0-11.047h-1.249v-5.362h1.249Zm0-11.048h-1.249v-5.361h1.249Zm0-11.048h-1.249v-5.361h1.249Zm0-11.048h-1.249v-5.36h1.249Zm0-11.047h-1.249v-5.361h1.249Zm0-11.048h-1.249v-5.361h1.249Zm0-11.048h-1.249v-5.361h1.249Zm0-11.048h-1.249v-5.36h1.249Zm0-11.047h-1.249v-5.361h1.249Z" transform="translate(-29.464 -215.932)" fill="#edecec" opacity="0.109"/>
          <path id="패스_88603" data-name="패스 88603" d="M314.69,265.987v-37.24a9.936,9.936,0,0,0-4.063-8.109,8.86,8.86,0,0,0-5.171-1.667H42.5a9.515,9.515,0,0,0-9.234,9.775v37.24h.07c8.258,0,14.95,7.084,14.95,15.826a15.634,15.634,0,0,1-12.163,15.548,14.043,14.043,0,0,1-2.787.28h-.07V334.88a9.514,9.514,0,0,0,9.234,9.775H305.456a9.514,9.514,0,0,0,9.234-9.775V297.641c-1.333-8.305-14.88-7.113-14.88-15.828S313.621,271.035,314.69,265.987ZM133.743,339.655h-1.249V334.3h1.249Zm0-11.032h-1.249V323.27h1.249Zm0-11.032h-1.249v-5.354h1.249Zm0-11.033h-1.249v-5.353h1.249Zm0-11.033h-1.249v-5.353h1.249Zm0-11.032h-1.249v-5.353h1.249Zm0-11.033h-1.249V268.11h1.249Zm0-11.033h-1.249v-5.353h1.249Zm0-11.032h-1.249v-5.353h1.249Zm0-11.033h-1.249v-5.353h1.249Zm0-11.032h-1.249v-5.353h1.249Z" transform="translate(-29.451 -215.921)" fill="#eae8e8" opacity="0.13"/>
          <path id="패스_88604" data-name="패스 88604" d="M314.565,265.832V228.646a9.92,9.92,0,0,0-4.063-8.1,8.868,8.868,0,0,0-5.172-1.664H42.39a9.507,9.507,0,0,0-9.233,9.761v37.186h.07c8.258,0,14.95,7.074,14.95,15.8a15.615,15.615,0,0,1-12.162,15.525,14.12,14.12,0,0,1-2.788.279h-.07v37.185a9.507,9.507,0,0,0,9.233,9.761h262.94a9.507,9.507,0,0,0,9.234-9.761V297.44c-1.505-8.1-14.879-7.1-14.879-15.8S313.316,270.755,314.565,265.832ZM133.628,339.395H132.38v-5.345h1.248Zm0-11.017H132.38v-5.345h1.248Zm0-11.015H132.38v-5.346h1.248Zm0-11.017H132.38V301h1.248Zm0-11.017H132.38v-5.345h1.248Zm0-11.016H132.38v-5.346h1.248Zm0-11.017H132.38v-5.345h1.248Zm0-11.016H132.38v-5.345h1.248Zm0-11.017H132.38v-5.345h1.248Zm0-11.016H132.38V234.9h1.248Zm0-11.016H132.38v-5.346h1.248Z" transform="translate(-29.437 -215.91)" fill="#e6e5e5" opacity="0.152"/>
          <path id="패스_88605" data-name="패스 88605" d="M314.438,265.677V228.545a9.9,9.9,0,0,0-4.063-8.086A8.873,8.873,0,0,0,305.2,218.8H42.281a9.5,9.5,0,0,0-9.233,9.747v37.132h.07c8.258,0,14.949,7.065,14.949,15.781a15.6,15.6,0,0,1-12.161,15.5,14.175,14.175,0,0,1-2.788.278h-.07v37.131a9.5,9.5,0,0,0,9.233,9.747H305.2a9.5,9.5,0,0,0,9.233-9.747V297.24c-1.676-7.892-14.878-7.093-14.878-15.781S313.012,270.475,314.438,265.677ZM133.513,339.134h-1.248V333.8h1.248Zm0-11h-1.248V322.8h1.248Zm0-11h-1.248V311.8h1.248Zm0-11h-1.248V300.8h1.248Zm0-11h-1.248v-5.337h1.248Zm0-11h-1.248v-5.337h1.248Zm0-11h-1.248v-5.338h1.248Zm0-11h-1.248v-5.337h1.248Zm0-11h-1.248v-5.337h1.248Zm0-11h-1.248v-5.338h1.248Zm0-11h-1.248v-5.338h1.248Z" transform="translate(-29.424 -215.9)" fill="#e3e1e1" opacity="0.174"/>
          <path id="패스_88606" data-name="패스 88606" d="M314.312,265.522V228.444a9.882,9.882,0,0,0-4.062-8.074,8.885,8.885,0,0,0-5.171-1.659H42.172a9.491,9.491,0,0,0-9.232,9.733v37.078h.07c8.256,0,14.948,7.054,14.948,15.758A15.581,15.581,0,0,1,35.8,296.762a14.106,14.106,0,0,1-2.787.277h-.07v37.079a9.49,9.49,0,0,0,9.232,9.732H305.079a9.49,9.49,0,0,0,9.232-9.732V297.039c-1.848-7.685-14.878-7.082-14.878-15.758S312.707,270.2,314.312,265.522ZM133.4,338.873H132.15v-5.331H133.4Zm0-10.985H132.15v-5.329H133.4Zm0-10.984H132.15v-5.33H133.4Zm0-10.984H132.15v-5.33H133.4Zm0-10.984H132.15V289.6H133.4Zm0-10.985H132.15v-5.329H133.4Zm0-10.984H132.15v-5.33H133.4Zm0-10.984H132.15v-5.33H133.4Zm0-10.984H132.15v-5.329H133.4Zm0-10.984H132.15v-5.33H133.4Zm0-10.984H132.15V223.7H133.4Z" transform="translate(-29.411 -215.889)" fill="#dfdddd" opacity="0.196"/>
          <path id="패스_88607" data-name="패스 88607" d="M314.186,265.368V228.343a9.862,9.862,0,0,0-4.063-8.062,8.885,8.885,0,0,0-5.17-1.657H42.063a9.483,9.483,0,0,0-9.232,9.719v37.024h.07c8.256,0,14.947,7.044,14.947,15.736a15.56,15.56,0,0,1-12.16,15.457,14.1,14.1,0,0,1-2.787.278h-.07v37.024a9.484,9.484,0,0,0,9.232,9.719H304.954a9.485,9.485,0,0,0,9.232-9.719V296.839c-2.02-7.479-14.877-7.072-14.877-15.736S312.4,269.915,314.186,265.368Zm-180.9,73.243h-1.248v-5.322h1.248Zm0-10.968h-1.248v-5.322h1.248Zm0-10.969h-1.248v-5.322h1.248Zm0-10.968h-1.248v-5.322h1.248Zm0-10.969h-1.248v-5.322h1.248Zm0-10.968h-1.248v-5.322h1.248Zm0-10.968h-1.248v-5.322h1.248Zm0-10.969h-1.248V256.51h1.248Zm0-10.969h-1.248v-5.322h1.248Zm0-10.968h-1.248v-5.322h1.248Zm0-10.969h-1.248V223.6h1.248Z" transform="translate(-29.397 -215.878)" fill="#dcd9d9" opacity="0.217"/>
          <path id="패스_88608" data-name="패스 88608" d="M314.06,265.213V228.242A9.843,9.843,0,0,0,310,220.192a8.9,8.9,0,0,0-5.17-1.655H41.954a9.476,9.476,0,0,0-9.232,9.705v36.971h.07c8.255,0,14.946,7.034,14.946,15.713A15.542,15.542,0,0,1,35.579,296.36a14.106,14.106,0,0,1-2.787.278h-.07v36.971a9.476,9.476,0,0,0,9.232,9.705H304.828a9.476,9.476,0,0,0,9.232-9.705V296.639c-2.192-7.273-14.876-7.062-14.876-15.713S312.1,269.636,314.06,265.213ZM133.168,338.35H131.92v-5.314h1.248Zm0-10.952H131.92v-5.315h1.248Zm0-10.953H131.92v-5.314h1.248Zm0-10.953H131.92v-5.314h1.248Zm0-10.953H131.92v-5.315h1.248Zm0-10.953H131.92v-5.314h1.248Zm0-10.953H131.92V267.32h1.248Zm0-10.953H131.92v-5.314h1.248Zm0-10.953H131.92v-5.315h1.248Zm0-10.953H131.92v-5.315h1.248Zm0-10.952H131.92V223.51h1.248Z" transform="translate(-29.384 -215.867)" fill="#d8d6d5" opacity="0.239"/>
          <path id="패스_88609" data-name="패스 88609" d="M313.933,265.058V228.141a9.825,9.825,0,0,0-4.061-8.039,8.914,8.914,0,0,0-5.169-1.652H41.845a9.468,9.468,0,0,0-9.232,9.691v36.917h.07c8.256,0,14.946,7.023,14.946,15.689A15.524,15.524,0,0,1,35.47,296.16a14.1,14.1,0,0,1-2.787.278h-.07v36.916a9.468,9.468,0,0,0,9.232,9.691H304.7a9.468,9.468,0,0,0,9.23-9.691V296.438c-2.363-7.066-14.874-7.052-14.874-15.691S311.794,269.355,313.933,265.058Zm-180.88,73.031H131.8v-5.307h1.248Zm0-10.937H131.8v-5.307h1.248Zm0-10.936H131.8V310.91h1.248Zm0-10.937H131.8v-5.307h1.248Zm0-10.937H131.8v-5.307h1.248Zm0-10.937H131.8V278.1h1.248Zm0-10.937H131.8v-5.307h1.248Zm0-10.936H131.8v-5.307h1.248Zm0-10.937H131.8v-5.307h1.248Zm0-10.936H131.8v-5.307h1.248Zm0-10.937H131.8v-5.307h1.248Z" transform="translate(-29.371 -215.857)" fill="#d4d2d2" opacity="0.261"/>
          <path id="패스_88610" data-name="패스 88610" d="M313.807,264.9V228.04a9.807,9.807,0,0,0-4.061-8.027,8.918,8.918,0,0,0-5.169-1.65H41.735A9.461,9.461,0,0,0,32.5,228.04V264.9h.07c8.255,0,14.945,7.013,14.945,15.666a15.506,15.506,0,0,1-12.158,15.39,14.155,14.155,0,0,1-2.787.277H32.5V333.1a9.46,9.46,0,0,0,9.231,9.677H304.578a9.46,9.46,0,0,0,9.23-9.677V296.237c-2.535-6.858-14.874-7.041-14.874-15.667S311.489,269.076,313.807,264.9ZM132.938,337.829H131.69v-5.3h1.248Zm0-10.921H131.69v-5.3h1.248Zm0-10.92H131.69v-5.3h1.248Zm0-10.921H131.69v-5.3h1.248Zm0-10.921H131.69v-5.3h1.248Zm0-10.92H131.69v-5.3h1.248Zm0-10.921H131.69V267h1.248Zm0-10.921H131.69v-5.3h1.248Zm0-10.92H131.69v-5.3h1.248Zm0-10.921H131.69v-5.3h1.248Zm0-10.92H131.69v-5.3h1.248Z" transform="translate(-29.357 -215.846)" fill="#d1cece" opacity="0.283"/>
          <path id="패스_88611" data-name="패스 88611" d="M313.681,264.748V227.939a9.787,9.787,0,0,0-4.061-8.016,8.92,8.92,0,0,0-5.169-1.648H41.626a9.453,9.453,0,0,0-9.23,9.663v36.809h.07c8.254,0,14.943,7,14.943,15.644a15.489,15.489,0,0,1-12.157,15.368,14.157,14.157,0,0,1-2.786.276H32.4v36.809a9.453,9.453,0,0,0,9.23,9.663H304.451a9.453,9.453,0,0,0,9.23-9.663V296.037c-2.707-6.652-14.872-7.031-14.872-15.644S311.184,268.8,313.681,264.748ZM132.823,337.567h-1.247v-5.291h1.247Zm0-10.9h-1.247v-5.292h1.247Zm0-10.9h-1.247v-5.292h1.247Zm0-10.905h-1.247v-5.291h1.247Zm0-10.905h-1.247v-5.291h1.247Zm0-10.9h-1.247v-5.292h1.247Zm0-10.905h-1.247v-5.291h1.247Zm0-10.9h-1.247v-5.292h1.247Zm0-10.9h-1.247v-5.292h1.247Zm0-10.905h-1.247v-5.291h1.247Zm0-10.9h-1.247v-5.292h1.247Z" transform="translate(-29.344 -215.835)" fill="#cdcaca" opacity="0.304"/>
          <path id="패스_88612" data-name="패스 88612" d="M313.555,264.594V227.838a9.768,9.768,0,0,0-4.061-8,8.929,8.929,0,0,0-5.169-1.645H41.517a9.444,9.444,0,0,0-9.23,9.648v36.756h.07c8.253,0,14.943,6.993,14.943,15.622a15.471,15.471,0,0,1-12.156,15.345,14.157,14.157,0,0,1-2.786.275h-.07v36.757a9.445,9.445,0,0,0,9.23,9.648H304.326a9.445,9.445,0,0,0,9.23-9.648V295.836c-2.879-6.445-14.872-7.02-14.872-15.621S310.881,268.516,313.555,264.594ZM132.709,337.307h-1.248v-5.284h1.248Zm0-10.889h-1.248v-5.284h1.248Zm0-10.889h-1.248v-5.285h1.248Zm0-10.89h-1.248v-5.284h1.248Zm0-10.89h-1.248v-5.283h1.248Zm0-10.889h-1.248v-5.284h1.248Zm0-10.889h-1.248v-5.284h1.248Zm0-10.89h-1.248V255.8h1.248Zm0-10.889h-1.248v-5.284h1.248Zm0-10.889h-1.248v-5.284h1.248Zm0-10.889h-1.248v-5.284h1.248Z" transform="translate(-29.331 -215.825)" fill="#cac7c6" opacity="0.326"/>
          <path id="패스_88613" data-name="패스 88613" d="M313.429,264.438v-36.7a9.749,9.749,0,0,0-4.061-7.991A8.937,8.937,0,0,0,304.2,218.1H41.407a9.437,9.437,0,0,0-9.229,9.634v36.7h.071c8.252,0,14.942,6.983,14.942,15.6A15.453,15.453,0,0,1,35.035,295.36a14.229,14.229,0,0,1-2.786.275h-.071v36.7a9.436,9.436,0,0,0,9.229,9.634H304.2a9.436,9.436,0,0,0,9.229-9.634v-36.7c-3.05-6.239-14.871-7.01-14.871-15.6S310.576,268.236,313.429,264.438ZM132.594,337.045h-1.248V331.77h1.248Zm0-10.873h-1.248V320.9h1.248Zm0-10.873h-1.248v-5.276h1.248Zm0-10.873h-1.248V299.15h1.248Zm0-10.874h-1.248v-5.275h1.248Zm0-10.872h-1.248V277.4h1.248Zm0-10.874h-1.248v-5.276h1.248Zm0-10.873h-1.248v-5.276h1.248Zm0-10.873h-1.248v-5.276h1.248Zm0-10.873h-1.248v-5.276h1.248Zm0-10.873h-1.248v-5.276h1.248Z" transform="translate(-29.317 -215.814)" fill="#c6c3c2" opacity="0.348"/>
          <path id="패스_88614" data-name="패스 88614" d="M313.3,264.284V227.635a9.731,9.731,0,0,0-4.06-7.98,8.949,8.949,0,0,0-5.168-1.64H41.3a9.428,9.428,0,0,0-9.228,9.619v36.649h.07c8.252,0,14.941,6.973,14.941,15.576a15.435,15.435,0,0,1-12.155,15.3,14.229,14.229,0,0,1-2.786.275h-.07v36.648A9.429,9.429,0,0,0,41.3,341.7H304.074a9.429,9.429,0,0,0,9.228-9.621V295.436c-3.222-6.033-14.87-7-14.87-15.576S310.271,267.956,313.3,264.284Zm-180.824,72.5H131.23v-5.268h1.248Zm0-10.857H131.23v-5.268h1.248Zm0-10.857H131.23V309.8h1.248Zm0-10.857H131.23v-5.268h1.248Zm0-10.857H131.23v-5.268h1.248Zm0-10.857H131.23v-5.268h1.248Zm0-10.857H131.23v-5.268h1.248Zm0-10.857H131.23v-5.268h1.248Zm0-10.857H131.23V244.66h1.248Zm0-10.857H131.23V233.8h1.248Zm0-10.857H131.23v-5.269h1.248Z" transform="translate(-29.304 -215.804)" fill="#c3bfbf" opacity="0.37"/>
          <path id="패스_88615" data-name="패스 88615" d="M313.177,264.13v-36.6a9.713,9.713,0,0,0-4.06-7.968,8.959,8.959,0,0,0-5.168-1.637H41.189a9.421,9.421,0,0,0-9.228,9.605v36.6h.07c8.252,0,14.94,6.962,14.94,15.553A15.416,15.416,0,0,1,34.817,294.96a14.231,14.231,0,0,1-2.786.275h-.07V331.83a9.421,9.421,0,0,0,9.228,9.606h262.76a9.422,9.422,0,0,0,9.228-9.606V295.236c-3.394-5.827-14.87-6.99-14.87-15.553S309.967,267.676,313.177,264.13ZM132.364,336.523h-1.247v-5.26h1.247Zm0-10.84h-1.247v-5.26h1.247Zm0-10.842h-1.247v-5.26h1.247Zm0-10.84h-1.247v-5.26h1.247Zm0-10.841h-1.247V287.9h1.247Zm0-10.841h-1.247v-5.26h1.247Zm0-10.841h-1.247v-5.26h1.247Zm0-10.841h-1.247v-5.26h1.247Zm0-10.84h-1.247v-5.261h1.247Zm0-10.841h-1.247v-5.261h1.247Zm0-10.841h-1.247V222.85h1.247Z" transform="translate(-29.291 -215.793)" fill="#bfbbbb" opacity="0.391"/>
          <path id="패스_88616" data-name="패스 88616" d="M313.05,263.975V227.433a9.7,9.7,0,0,0-4.059-7.956,8.966,8.966,0,0,0-5.167-1.635H41.079a9.413,9.413,0,0,0-9.227,9.591v36.542h.071c8.251,0,14.938,6.952,14.938,15.529a15.4,15.4,0,0,1-12.153,15.257,14.294,14.294,0,0,1-2.785.274h-.071v36.541a9.414,9.414,0,0,0,9.227,9.592H303.824a9.413,9.413,0,0,0,9.226-9.592V295.035c-3.565-5.62-14.868-6.98-14.868-15.53S309.662,267.4,313.05,263.975Zm-180.8,72.287H131V331.01h1.247Zm0-10.826H131v-5.252h1.247Zm0-10.826H131v-5.252h1.247Zm0-10.825H131v-5.253h1.247Zm0-10.825H131v-5.254h1.247Zm0-10.826H131v-5.252h1.247Zm0-10.825H131v-5.253h1.247Zm0-10.826H131v-5.253h1.247Zm0-10.826H131v-5.253h1.247Zm0-10.826H131v-5.252h1.247Zm0-10.825H131v-5.253h1.247Z" transform="translate(-29.277 -215.782)" fill="#bcb8b7" opacity="0.413"/>
          <path id="패스_88617" data-name="패스 88617" d="M312.925,263.82V227.332a9.677,9.677,0,0,0-4.06-7.945,8.964,8.964,0,0,0-5.166-1.633H40.97a9.406,9.406,0,0,0-9.226,9.578V263.82h.07c8.251,0,14.937,6.942,14.937,15.507A15.382,15.382,0,0,1,34.6,294.561a14.287,14.287,0,0,1-2.785.274h-.07v36.487A9.406,9.406,0,0,0,40.97,340.9H303.7a9.407,9.407,0,0,0,9.226-9.578V294.834c-3.738-5.414-14.868-6.969-14.868-15.507S309.358,267.117,312.925,263.82ZM132.134,336h-1.248v-5.245h1.248Zm0-10.809h-1.248v-5.246h1.248Zm0-10.811h-1.248v-5.244h1.248Zm0-10.809h-1.248v-5.244h1.248Zm0-10.809h-1.248v-5.245h1.248Zm0-10.811h-1.248v-5.244h1.248Zm0-10.809h-1.248V265.9h1.248Zm0-10.81h-1.248v-5.244h1.248Zm0-10.809h-1.248v-5.245h1.248Zm0-10.81h-1.248v-5.245h1.248Zm0-10.809h-1.248v-5.245h1.248Z" transform="translate(-29.264 -215.771)" fill="#b8b4b3" opacity="0.435"/>
          <path id="패스_88618" data-name="패스 88618" d="M312.8,263.665V227.231a9.659,9.659,0,0,0-4.059-7.933,8.983,8.983,0,0,0-5.166-1.631H40.86a9.4,9.4,0,0,0-9.225,9.564v36.434h.07a15.541,15.541,0,0,1,2.785,30.7,14.28,14.28,0,0,1-2.785.273h-.07v36.435a9.4,9.4,0,0,0,9.225,9.563H303.573a9.4,9.4,0,0,0,9.225-9.563V294.633c-3.909-5.207-14.867-6.958-14.867-15.484S309.053,266.837,312.8,263.665ZM132.018,335.74h-1.247V330.5h1.247Zm0-10.794h-1.247v-5.237h1.247Zm0-10.794h-1.247v-5.236h1.247Zm0-10.793h-1.247v-5.237h1.247Zm0-10.793h-1.247v-5.237h1.247Zm0-10.794h-1.247v-5.237h1.247Zm0-10.793h-1.247v-5.238h1.247Zm0-10.794h-1.247v-5.237h1.247Zm0-10.793h-1.247v-5.238h1.247Zm0-10.794h-1.247v-5.237h1.247Zm0-10.793h-1.247v-5.238h1.247Z" transform="translate(-29.251 -215.761)" fill="#b5b0b0" opacity="0.457"/>
          <path id="패스_88619" data-name="패스 88619" d="M312.671,263.51V227.13a9.641,9.641,0,0,0-4.059-7.922,8.988,8.988,0,0,0-5.165-1.627H40.751a9.391,9.391,0,0,0-9.225,9.549v36.38h.07a15.515,15.515,0,0,1,2.785,30.65,14.349,14.349,0,0,1-2.785.273h-.07v36.379a9.39,9.39,0,0,0,9.225,9.55h262.7a9.39,9.39,0,0,0,9.224-9.55V294.433c-4.081-5-14.865-6.948-14.865-15.462S308.749,266.557,312.671,263.51ZM131.9,335.479h-1.247V330.25H131.9Zm0-10.777h-1.247v-5.229H131.9Zm0-10.778h-1.247v-5.229H131.9Zm0-10.777h-1.247v-5.229H131.9Zm0-10.777h-1.247V287.14H131.9Zm0-10.778h-1.247v-5.229H131.9Zm0-10.777h-1.247v-5.229H131.9Zm0-10.777h-1.247v-5.229H131.9Zm0-10.778h-1.247v-5.229H131.9Zm0-10.777h-1.247v-5.229H131.9Zm0-10.777h-1.247v-5.23H131.9Z" transform="translate(-29.237 -215.75)" fill="#b1acac" opacity="0.478"/>
          <path id="패스_88620" data-name="패스 88620" d="M312.545,263.355V227.029a9.619,9.619,0,0,0-4.058-7.909,8.993,8.993,0,0,0-5.165-1.626H40.642a9.383,9.383,0,0,0-9.225,9.535v36.326h.071a15.49,15.49,0,0,1,2.784,30.605,14.344,14.344,0,0,1-2.784.273h-.071v36.326a9.383,9.383,0,0,0,9.225,9.536H303.321a9.382,9.382,0,0,0,9.224-9.536V294.233c-4.252-4.794-14.864-6.938-14.864-15.439S308.445,266.277,312.545,263.355ZM131.789,335.218h-1.247V330h1.247Zm0-10.761h-1.247v-5.222h1.247Zm0-10.762h-1.247v-5.222h1.247Zm0-10.761h-1.247v-5.221h1.247Zm0-10.761h-1.247V286.95h1.247Zm0-10.761h-1.247v-5.222h1.247Zm0-10.762h-1.247v-5.222h1.247Zm0-10.762h-1.247v-5.221h1.247Zm0-10.761h-1.247V243.9h1.247Zm0-10.761h-1.247v-5.222h1.247Zm0-10.761h-1.247V222.38h1.247Z" transform="translate(-29.224 -215.739)" fill="#ada8a8" opacity="0.5"/>
          <path id="패스_88621" data-name="패스 88621" d="M312.419,263.2V226.928a9.6,9.6,0,0,0-4.058-7.9,9.006,9.006,0,0,0-5.165-1.623H40.533a9.375,9.375,0,0,0-9.224,9.521V263.2h.07a15.464,15.464,0,0,1,2.785,30.56,14.294,14.294,0,0,1-2.785.273h-.07v36.272a9.375,9.375,0,0,0,9.224,9.521H303.2a9.375,9.375,0,0,0,9.224-9.521V294.033c-4.424-4.588-14.864-6.929-14.864-15.416S308.14,266,312.419,263.2ZM131.674,334.957h-1.247v-5.214h1.247Zm0-10.746h-1.247V319h1.247Zm0-10.746h-1.247v-5.214h1.247Zm0-10.746h-1.247v-5.214h1.247Zm0-10.746h-1.247V286.76h1.247Zm0-10.746h-1.247v-5.215h1.247Zm0-10.746h-1.247v-5.215h1.247Zm0-10.746h-1.247v-5.215h1.247Zm0-10.746h-1.247v-5.215h1.247Zm0-10.746h-1.247v-5.214h1.247Zm0-10.746h-1.247v-5.214h1.247Z" transform="translate(-29.211 -215.729)" fill="#aaa5a4" opacity="0.522"/>
          <path id="패스_88622" data-name="패스 88622" d="M312.294,263.046V226.827a9.585,9.585,0,0,0-4.059-7.887,9.014,9.014,0,0,0-5.165-1.62H40.424a9.367,9.367,0,0,0-9.224,9.507v36.219h.07a15.439,15.439,0,0,1,2.785,30.515,14.422,14.422,0,0,1-2.785.271H31.2v36.219a9.367,9.367,0,0,0,9.224,9.507H303.069a9.367,9.367,0,0,0,9.224-9.507V293.832c-4.6-4.381-14.864-6.918-14.864-15.393S307.835,265.717,312.294,263.046ZM131.56,334.7h-1.247v-5.207h1.247Zm0-10.73h-1.247V318.76h1.247Zm0-10.73h-1.247v-5.206h1.247Zm0-10.73h-1.247V297.3h1.247Zm0-10.73h-1.247V286.57h1.247Zm0-10.73h-1.247V275.84h1.247Zm0-10.73h-1.247V265.11h1.247Zm0-10.729h-1.247V254.38h1.247Zm0-10.73h-1.247V243.65h1.247Zm0-10.73h-1.247v-5.207h1.247Zm0-10.73h-1.247v-5.207h1.247Z" transform="translate(-29.197 -215.718)" fill="#a6a1a0" opacity="0.543"/>
          <path id="패스_88623" data-name="패스 88623" d="M312.167,262.891V226.726a9.567,9.567,0,0,0-4.058-7.874,9.019,9.019,0,0,0-5.165-1.619H40.315a9.36,9.36,0,0,0-9.224,9.493v36.165h.07a15.413,15.413,0,0,1,2.785,30.469,14.415,14.415,0,0,1-2.785.271h-.07V329.8a9.36,9.36,0,0,0,9.224,9.493h262.63a9.36,9.36,0,0,0,9.223-9.493V293.632c-4.768-4.174-14.862-6.908-14.862-15.371S307.531,265.437,312.167,262.891ZM131.444,334.434H130.2v-5.2h1.247Zm0-10.713H130.2v-5.2h1.247Zm0-10.714H130.2v-5.2h1.247Zm0-10.714H130.2v-5.2h1.247Zm0-10.714H130.2v-5.2h1.247Zm0-10.713H130.2v-5.2h1.247Zm0-10.714H130.2v-5.2h1.247Zm0-10.714H130.2v-5.2h1.247Zm0-10.714H130.2v-5.2h1.247Zm0-10.713H130.2v-5.2h1.247Zm0-10.714H130.2v-5.2h1.247Z" transform="translate(-29.184 -215.707)" fill="#a39d9d" opacity="0.565"/>
          <path id="패스_88624" data-name="패스 88624" d="M312.041,262.737V226.625a9.548,9.548,0,0,0-4.057-7.863,9.029,9.029,0,0,0-5.164-1.616H40.2a9.352,9.352,0,0,0-9.222,9.479v36.112h.07a15.388,15.388,0,0,1,2.784,30.424,14.485,14.485,0,0,1-2.784.27h-.07v36.112a9.352,9.352,0,0,0,9.222,9.479H302.819a9.352,9.352,0,0,0,9.222-9.479V293.431c-4.94-3.967-14.861-6.9-14.861-15.347S307.226,265.157,312.041,262.737ZM131.329,334.174h-1.247v-5.191h1.247Zm0-10.7h-1.247v-5.191h1.247Zm0-10.7h-1.247v-5.192h1.247Zm0-10.7h-1.247v-5.191h1.247Zm0-10.7h-1.247v-5.192h1.247Zm0-10.7h-1.247v-5.191h1.247Zm0-10.7h-1.247v-5.191h1.247Zm0-10.7h-1.247V254.1h1.247Zm0-10.7h-1.247V243.4h1.247Zm0-10.7h-1.247V232.7h1.247Zm0-10.7h-1.247V222h1.247Z" transform="translate(-29.171 -215.697)" fill="#9f9999" opacity="0.587"/>
          <path id="패스_88625" data-name="패스 88625" d="M311.914,262.581V226.524a9.53,9.53,0,0,0-4.057-7.852,9.035,9.035,0,0,0-5.164-1.613H40.1a9.344,9.344,0,0,0-9.222,9.465v36.058h.07a15.363,15.363,0,0,1,2.784,30.379,14.467,14.467,0,0,1-2.784.27h-.07v36.058a9.344,9.344,0,0,0,9.222,9.465h262.6a9.344,9.344,0,0,0,9.221-9.465V293.231c-5.111-3.761-14.859-6.887-14.859-15.324S306.922,264.877,311.914,262.581Zm-180.7,71.332h-1.247V328.73h1.247Zm0-10.682h-1.247v-5.183h1.247Zm0-10.682h-1.247v-5.184h1.247Zm0-10.682h-1.247v-5.183h1.247Zm0-10.682h-1.247V286h1.247Zm0-10.682h-1.247v-5.183h1.247Zm0-10.682h-1.247v-5.184h1.247Zm0-10.682h-1.247v-5.183h1.247Zm0-10.682h-1.247v-5.184h1.247Zm0-10.682h-1.247v-5.183h1.247Zm0-10.682h-1.247v-5.184h1.247Z" transform="translate(-29.157 -215.686)" fill="#9c9695" opacity="0.609"/>
          <path id="패스_88626" data-name="패스 88626" d="M311.789,262.427v-36a9.511,9.511,0,0,0-4.057-7.839,9.043,9.043,0,0,0-5.164-1.612H39.986a9.337,9.337,0,0,0-9.221,9.451v36h.07A15.337,15.337,0,0,1,33.62,292.76a14.483,14.483,0,0,1-2.784.27h-.07v36a9.337,9.337,0,0,0,9.221,9.451H302.568a9.337,9.337,0,0,0,9.221-9.451v-36c-5.283-3.555-14.859-6.877-14.859-15.3S306.617,264.6,311.789,262.427ZM131.1,333.652h-1.247v-5.176H131.1Zm0-10.667h-1.247V317.81H131.1Zm0-10.667h-1.247v-5.175H131.1Zm0-10.666h-1.247v-5.175H131.1Zm0-10.666h-1.247v-5.176H131.1Zm0-10.666h-1.247v-5.176H131.1Zm0-10.667h-1.247V264.48H131.1Zm0-10.666h-1.247v-5.176H131.1Zm0-10.667h-1.247v-5.175H131.1Zm0-10.666h-1.247V232.48H131.1Zm0-10.666h-1.247v-5.176H131.1Z" transform="translate(-29.144 -215.675)" fill="#989291" opacity="0.63"/>
          <path id="패스_88627" data-name="패스 88627" d="M311.663,262.272V226.322a9.494,9.494,0,0,0-4.057-7.828,9.054,9.054,0,0,0-5.164-1.609H39.877a9.329,9.329,0,0,0-9.22,9.437v35.951h.07a15.312,15.312,0,0,1,2.784,30.288,14.476,14.476,0,0,1-2.784.27h-.07v35.951a9.329,9.329,0,0,0,9.22,9.436H302.442a9.33,9.33,0,0,0,9.221-9.436V292.83c-5.456-3.349-14.858-6.867-14.858-15.279S306.313,264.318,311.663,262.272ZM130.984,333.391h-1.247v-5.168h1.247Zm0-10.65h-1.247v-5.168h1.247Zm0-10.651h-1.247v-5.167h1.247Zm0-10.649h-1.247v-5.169h1.247Zm0-10.651h-1.247v-5.168h1.247Zm0-10.65h-1.247v-5.168h1.247Zm0-10.65h-1.247v-5.168h1.247Zm0-10.651h-1.247v-5.168h1.247Zm0-10.65h-1.247v-5.168h1.247Zm0-10.65h-1.247v-5.168h1.247Zm0-10.65h-1.247v-5.168h1.247Z" transform="translate(-29.131 -215.665)" fill="#958e8e" opacity="0.652"/>
          <path id="패스_88628" data-name="패스 88628" d="M311.536,262.118v-35.9a9.476,9.476,0,0,0-4.057-7.816,9.06,9.06,0,0,0-5.163-1.606H39.768a9.322,9.322,0,0,0-9.22,9.423v35.9h.07A15.287,15.287,0,0,1,33.4,292.361a14.537,14.537,0,0,1-2.784.268h-.07v35.9a9.321,9.321,0,0,0,9.22,9.422H302.316a9.322,9.322,0,0,0,9.22-9.422v-35.9c-5.627-3.142-14.857-6.856-14.857-15.256S306.009,264.038,311.536,262.118ZM130.87,333.129h-1.247v-5.16h1.247Zm0-10.634h-1.247v-5.16h1.247Zm0-10.634h-1.247V306.7h1.247Zm0-10.634h-1.247v-5.16h1.247Zm0-10.634h-1.247v-5.16h1.247Zm0-10.634h-1.247V274.8h1.247Zm0-10.634h-1.247v-5.16h1.247Zm0-10.634h-1.247v-5.16h1.247Zm0-10.634h-1.247V242.9h1.247Zm0-10.634h-1.247v-5.16h1.247Zm0-10.634h-1.247v-5.16h1.247Z" transform="translate(-29.117 -215.654)" fill="#918a8a" opacity="0.674"/>
          <path id="패스_88629" data-name="패스 88629" d="M311.41,261.962V226.12a9.457,9.457,0,0,0-4.056-7.8,9.067,9.067,0,0,0-5.163-1.6H39.658a9.314,9.314,0,0,0-9.219,9.409v35.843h.071a15.262,15.262,0,0,1,2.783,30.2,14.535,14.535,0,0,1-2.783.268h-.071v35.843a9.314,9.314,0,0,0,9.219,9.409H302.191a9.314,9.314,0,0,0,9.219-9.409V292.429c-5.8-2.935-14.857-6.846-14.857-15.233S305.7,263.758,311.41,261.962ZM130.755,332.868h-1.247v-5.152h1.247Zm0-10.618h-1.247V317.1h1.247Zm0-10.619h-1.247v-5.152h1.247Zm0-10.618h-1.247v-5.152h1.247Zm0-10.618h-1.247v-5.153h1.247Zm0-10.618h-1.247v-5.153h1.247Zm0-10.618h-1.247v-5.153h1.247Zm0-10.618h-1.247v-5.153h1.247Zm0-10.618h-1.247v-5.153h1.247Zm0-10.618h-1.247V232.15h1.247Zm0-10.618h-1.247v-5.152h1.247Z" transform="translate(-29.104 -215.643)" fill="#8e8786" opacity="0.696"/>
          <path id="패스_88630" data-name="패스 88630" d="M311.283,261.808V226.019a9.439,9.439,0,0,0-4.056-7.793,9.078,9.078,0,0,0-5.163-1.6H39.549a9.306,9.306,0,0,0-9.218,9.395v35.789h.07a15.237,15.237,0,0,1,2.783,30.153,14.606,14.606,0,0,1-2.783.268h-.07v35.789a9.305,9.305,0,0,0,9.218,9.394H302.065a9.305,9.305,0,0,0,9.218-9.394V292.229c-5.97-2.729-14.855-6.836-14.855-15.211S305.4,263.478,311.283,261.808Zm-180.644,70.8h-1.247v-5.144h1.247Zm0-10.6h-1.247v-5.144h1.247Zm0-10.6h-1.247v-5.144h1.247Zm0-10.6h-1.247v-5.144h1.247Zm0-10.6h-1.247v-5.145h1.247Zm0-10.6h-1.247v-5.144h1.247Zm0-10.6h-1.247v-5.144h1.247Zm0-10.6h-1.247v-5.144h1.247Zm0-10.6h-1.247v-5.144h1.247Zm0-10.6h-1.247V232.04h1.247Zm0-10.6h-1.247v-5.145h1.247Z" transform="translate(-29.091 -215.633)" fill="#8a8382" opacity="0.717"/>
          <path id="패스_88631" data-name="패스 88631" d="M311.158,261.653V225.918a9.421,9.421,0,0,0-4.056-7.781,9.086,9.086,0,0,0-5.162-1.6H39.44a9.3,9.3,0,0,0-9.218,9.381v35.736h.07a15.211,15.211,0,0,1,2.783,30.107,14.6,14.6,0,0,1-2.783.268h-.07v35.735a9.3,9.3,0,0,0,9.218,9.381h262.5a9.3,9.3,0,0,0,9.218-9.381V292.029c-6.142-2.523-14.855-6.826-14.855-15.188S305.1,263.2,311.158,261.653ZM130.525,332.347h-1.247v-5.138h1.247Zm0-10.588h-1.247v-5.136h1.247Zm0-10.586h-1.247v-5.136h1.247Zm0-10.586h-1.247v-5.138h1.247Zm0-10.587h-1.247v-5.137h1.247Zm0-10.587h-1.247v-5.136h1.247Zm0-10.587h-1.247V263.69h1.247Zm0-10.586h-1.247V253.1h1.247Zm0-10.587h-1.247v-5.137h1.247Zm0-10.586h-1.247V231.93h1.247Zm0-10.587h-1.247v-5.137h1.247Z" transform="translate(-29.077 -215.622)" fill="#877f7e" opacity="0.739"/>
          <path id="패스_88632" data-name="패스 88632" d="M311.031,261.5V225.817a9.4,9.4,0,0,0-4.056-7.77,9.1,9.1,0,0,0-5.162-1.6H39.33a9.292,9.292,0,0,0-9.217,9.367V261.5h.07a15.186,15.186,0,0,1,2.783,30.062,14.525,14.525,0,0,1-2.783.268h-.07V327.51a9.292,9.292,0,0,0,9.217,9.367H301.814a9.292,9.292,0,0,0,9.217-9.367V291.828c-6.313-2.316-14.853-6.815-14.853-15.164S304.79,262.918,311.031,261.5ZM130.409,332.085h-1.247v-5.129h1.247Zm0-10.57h-1.247v-5.13h1.247Zm0-10.571h-1.247v-5.129h1.247Zm0-10.571h-1.247v-5.129h1.247Zm0-10.57h-1.247v-5.129h1.247Zm0-10.571h-1.247V274.1h1.247Zm0-10.57h-1.247v-5.129h1.247Zm0-10.57h-1.247v-5.13h1.247Zm0-10.571h-1.247v-5.129h1.247Zm0-10.571h-1.247V231.82h1.247Zm0-10.57h-1.247V221.25h1.247Z" transform="translate(-29.064 -215.611)" fill="#837b7b" opacity="0.761"/>
          <path id="패스_88633" data-name="패스 88633" d="M310.906,261.343V225.716a9.386,9.386,0,0,0-4.056-7.758,9.1,9.1,0,0,0-5.162-1.595H39.221A9.285,9.285,0,0,0,30,225.716v35.628h.07a15.162,15.162,0,0,1,2.783,30.018,14.671,14.671,0,0,1-2.783.266H30v35.629a9.285,9.285,0,0,0,9.217,9.353H301.688a9.285,9.285,0,0,0,9.217-9.353V291.627c-6.486-2.108-14.853-6.8-14.853-15.142S304.486,262.638,310.906,261.343ZM130.3,331.825h-1.247V326.7H130.3Zm0-10.555h-1.247v-5.122H130.3Zm0-10.554h-1.247v-5.121H130.3Zm0-10.554h-1.247v-5.122H130.3Zm0-10.555h-1.247v-5.121H130.3Zm0-10.554h-1.247v-5.122H130.3Zm0-10.555h-1.247v-5.122H130.3Zm0-10.554h-1.247V252.82H130.3Zm0-10.554h-1.247v-5.122H130.3Zm0-10.555h-1.247V231.71H130.3Zm0-10.554h-1.247v-5.121H130.3Z" transform="translate(-29.05 -215.601)" fill="#7f7877" opacity="0.783"/>
          <path id="패스_88634" data-name="패스 88634" d="M310.779,261.189V225.615a9.366,9.366,0,0,0-4.056-7.746,9.111,9.111,0,0,0-5.161-1.592H39.112a9.277,9.277,0,0,0-9.217,9.339v35.574h.071a15.137,15.137,0,0,1,2.783,29.972,14.682,14.682,0,0,1-2.783.266H29.9V327a9.277,9.277,0,0,0,9.217,9.339H301.563A9.277,9.277,0,0,0,310.779,327V291.426c-6.657-1.9-14.852-6.794-14.852-15.119S304.181,262.359,310.779,261.189Zm-180.6,70.375h-1.246V326.45h1.246Zm0-10.539h-1.246v-5.114h1.246Zm0-10.539h-1.246v-5.114h1.246Zm0-10.539h-1.246v-5.114h1.246Zm0-10.539h-1.246v-5.114h1.246Zm0-10.539h-1.246v-5.114h1.246Zm0-10.539h-1.246v-5.115h1.246Zm0-10.539h-1.246v-5.115h1.246Zm0-10.54h-1.246v-5.114h1.246Zm0-10.539h-1.246V231.6h1.246Zm0-10.539h-1.246v-5.114h1.246Z" transform="translate(-29.037 -215.59)" fill="#7c7473" opacity="0.804"/>
          <path id="패스_88635" data-name="패스 88635" d="M310.653,261.034V225.514a9.349,9.349,0,0,0-4.055-7.734,9.115,9.115,0,0,0-5.161-1.59H39a9.269,9.269,0,0,0-9.216,9.324v35.521h.07A15.111,15.111,0,0,1,32.64,290.96a14.613,14.613,0,0,1-2.783.267h-.07v35.521A9.269,9.269,0,0,0,39,336.071H301.437a9.269,9.269,0,0,0,9.216-9.324V291.226c-6.828-1.7-14.85-6.784-14.85-15.1S303.878,262.078,310.653,261.034ZM130.065,331.3h-1.247V326.2h1.247Zm0-10.523h-1.247v-5.107h1.247Zm0-10.523h-1.247V305.15h1.247Zm0-10.523h-1.247v-5.107h1.247Zm0-10.524h-1.247V284.1h1.247Zm0-10.523h-1.247v-5.106h1.247Zm0-10.523h-1.247v-5.106h1.247Zm0-10.523h-1.247v-5.106h1.247Zm0-10.523h-1.247v-5.106h1.247Zm0-10.523h-1.247V231.49h1.247Zm0-10.523h-1.247v-5.107h1.247Z" transform="translate(-29.024 -215.579)" fill="#78706f" opacity="0.826"/>
          <path id="패스_88636" data-name="패스 88636" d="M310.527,260.88V225.412a9.333,9.333,0,0,0-4.055-7.723,9.127,9.127,0,0,0-5.161-1.588H38.894a9.262,9.262,0,0,0-9.216,9.31V260.88h.07a15.086,15.086,0,0,1,2.783,29.881,14.748,14.748,0,0,1-2.783.266h-.07v35.466a9.262,9.262,0,0,0,9.216,9.31H301.311a9.262,9.262,0,0,0,9.216-9.31V291.026c-7-1.49-14.85-6.774-14.85-15.073S303.573,261.8,310.527,260.88ZM129.95,331.041H128.7v-5.1h1.246Zm0-10.506H128.7v-5.1h1.246Zm0-10.507H128.7v-5.1h1.246Zm0-10.508H128.7v-5.1h1.246Zm0-10.507H128.7v-5.1h1.246Zm0-10.507H128.7v-5.1h1.246Zm0-10.507H128.7v-5.1h1.246Zm0-10.506H128.7v-5.1h1.246Zm0-10.507H128.7v-5.1h1.246Zm0-10.507H128.7v-5.1h1.246Zm0-10.507H128.7v-5.1h1.246Z" transform="translate(-29.01 -215.569)" fill="#756c6b" opacity="0.848"/>
          <path id="패스_88637" data-name="패스 88637" d="M310.4,260.724V225.312a9.313,9.313,0,0,0-4.055-7.711,9.133,9.133,0,0,0-5.16-1.584H38.785a9.254,9.254,0,0,0-9.215,9.3v35.413h.069a15.062,15.062,0,0,1,2.783,29.836,14.67,14.67,0,0,1-2.783.265H29.57v35.414a9.254,9.254,0,0,0,9.215,9.3h262.4a9.254,9.254,0,0,0,9.215-9.3V290.825c-7.172-1.283-14.849-6.763-14.849-15.05S303.268,261.519,310.4,260.724ZM129.835,330.78h-1.246V325.69h1.246Zm0-10.491h-1.246V315.2h1.246Zm0-10.491h-1.246v-5.091h1.246Zm0-10.49h-1.246v-5.092h1.246Zm0-10.491h-1.246v-5.091h1.246Zm0-10.491h-1.246v-5.091h1.246Zm0-10.491h-1.246v-5.091h1.246Zm0-10.491h-1.246v-5.091h1.246Zm0-10.49h-1.246V241.76h1.246Zm0-10.491h-1.246V231.27h1.246Zm0-10.491h-1.246v-5.091h1.246Z" transform="translate(-28.997 -215.558)" fill="#716968" opacity="0.87"/>
          <path id="패스_88638" data-name="패스 88638" d="M310.274,260.57V225.21a9.3,9.3,0,0,0-4.054-7.7,9.147,9.147,0,0,0-5.16-1.583H38.675a9.247,9.247,0,0,0-9.214,9.282V260.57h.07a15.037,15.037,0,0,1,2.782,29.79,14.738,14.738,0,0,1-2.782.265h-.07v35.359a9.247,9.247,0,0,0,9.214,9.282H301.06a9.247,9.247,0,0,0,9.214-9.282V290.625c-7.344-1.076-14.848-6.753-14.848-15.028S302.964,261.239,310.274,260.57ZM129.721,330.52h-1.247v-5.083h1.247Zm0-10.475h-1.247V314.96h1.247Zm0-10.475h-1.247v-5.083h1.247Zm0-10.475h-1.247v-5.082h1.247Zm0-10.475h-1.247v-5.083h1.247Zm0-10.475h-1.247V273.06h1.247Zm0-10.475h-1.247v-5.083h1.247Zm0-10.475h-1.247V252.11h1.247Zm0-10.475h-1.247v-5.083h1.247Zm0-10.475h-1.247V231.16h1.247Zm0-10.475h-1.247v-5.083h1.247Z" transform="translate(-28.984 -215.547)" fill="#6e6564" opacity="0.891"/>
          <path id="패스_88639" data-name="패스 88639" d="M310.148,260.415V225.109a9.275,9.275,0,0,0-4.055-7.688,9.154,9.154,0,0,0-5.159-1.581H38.566a9.24,9.24,0,0,0-9.214,9.268v35.306h.07A15.012,15.012,0,0,1,32.2,290.16a14.741,14.741,0,0,1-2.782.265h-.07v35.3A9.239,9.239,0,0,0,38.566,335H300.934a9.24,9.24,0,0,0,9.214-9.268v-35.3c-7.516-.87-14.847-6.744-14.847-15S302.659,260.959,310.148,260.415ZM129.6,330.259h-1.246v-5.076H129.6Zm0-10.46h-1.246v-5.075H129.6Zm0-10.46h-1.246v-5.075H129.6Zm0-10.46h-1.246V293.8H129.6Zm0-10.459h-1.246v-5.075H129.6Zm0-10.46h-1.246v-5.075H129.6Zm0-10.459h-1.246v-5.075H129.6Zm0-10.46h-1.246v-5.075H129.6Zm0-10.459h-1.246v-5.075H129.6Zm0-10.46h-1.246v-5.075H129.6Zm0-10.459h-1.246V220.59H129.6Z" transform="translate(-28.97 -215.537)" fill="#6a6160" opacity="0.913"/>
          <path id="패스_88640" data-name="패스 88640" d="M310.022,260.26V225.008a9.208,9.208,0,0,0-9.213-9.254H38.457a9.232,9.232,0,0,0-9.213,9.254V260.26h.07a14.987,14.987,0,0,1,2.781,29.7,14.729,14.729,0,0,1-2.781.265h-.07v35.251a9.231,9.231,0,0,0,9.213,9.253H300.809a9.232,9.232,0,0,0,9.213-9.253V290.225c-7.688-.664-14.846-6.734-14.846-14.982S302.355,260.679,310.022,260.26ZM129.49,330h-1.246v-5.067h1.246Zm0-10.443h-1.246v-5.067h1.246Zm0-10.443h-1.246v-5.067h1.246Zm0-10.443h-1.246V293.6h1.246Zm0-10.444h-1.246v-5.067h1.246Zm0-10.443h-1.246v-5.068h1.246Zm0-10.444h-1.246v-5.067h1.246Zm0-10.443h-1.246v-5.067h1.246Zm0-10.443h-1.246v-5.068h1.246Zm0-10.444h-1.246V230.94h1.246Zm0-10.444h-1.246V220.5h1.246Z" transform="translate(-28.957 -215.526)" fill="#675d5c" opacity="0.935"/>
          <path id="패스_88641" data-name="패스 88641" d="M309.9,260.105v-35.2a9.2,9.2,0,0,0-9.213-9.24H38.347a9.225,9.225,0,0,0-9.212,9.24v35.2h.07a14.959,14.959,0,0,1,0,29.918h-.07v35.2a9.225,9.225,0,0,0,9.212,9.239H300.683a9.226,9.226,0,0,0,9.213-9.239v-35.2c-7.859-.457-14.846-6.723-14.846-14.959S302.05,260.4,309.9,260.105ZM129.375,329.736H128.13v-5.059h1.246Zm0-10.426H128.13v-5.061h1.246Zm0-10.428H128.13v-5.06h1.246Zm0-10.428H128.13v-5.059h1.246Zm0-10.427H128.13v-5.059h1.246Zm0-10.427H128.13v-5.059h1.246Zm0-10.427H128.13v-5.06h1.246Zm0-10.427H128.13v-5.06h1.246Zm0-10.428H128.13v-5.06h1.246Zm0-10.427H128.13v-5.06h1.246Zm0-10.427H128.13V220.4h1.246Z" transform="translate(-28.944 -215.515)" fill="#635a59" opacity="0.957"/>
          <path id="패스_88642" data-name="패스 88642" d="M309.77,259.951V224.806a9.195,9.195,0,0,0-9.212-9.225H38.238a9.218,9.218,0,0,0-9.212,9.225v35.144h.07a14.936,14.936,0,0,1,0,29.873h-.07v35.145a9.218,9.218,0,0,0,9.212,9.224H300.558a9.217,9.217,0,0,0,9.212-9.224V289.823a14.937,14.937,0,0,1,0-29.873ZM129.26,329.475h-1.246v-5.052h1.246Zm0-10.411h-1.246v-5.052h1.246Zm0-10.411h-1.246V303.6h1.246Zm0-10.411h-1.246v-5.052h1.246Zm0-10.412h-1.246v-5.051h1.246Zm0-10.411h-1.246v-5.051h1.246Zm0-10.411h-1.246v-5.052h1.246Zm0-10.411h-1.246v-5.052h1.246Zm0-10.411h-1.246v-5.052h1.246Zm0-10.411h-1.246v-5.052h1.246Zm0-10.412h-1.246v-5.051h1.246Z" transform="translate(-28.93 -215.505)" fill="#605655" opacity="0.978"/>
          <path id="패스_88643" data-name="패스 88643" d="M309.643,259.8V224.705a9.191,9.191,0,0,0-9.211-9.211H38.128a9.21,9.21,0,0,0-9.211,9.211V259.8h.071a14.912,14.912,0,0,1,2.78,29.563,14.5,14.5,0,0,1-2.78.264h-.071v35.09a9.21,9.21,0,0,0,9.211,9.211h262.3a9.21,9.21,0,0,0,9.211-9.211v-35.09a14.914,14.914,0,0,1,0-29.827Zm-180.5,69.418H127.9V324.17h1.245Zm0-10.4H127.9v-5.044h1.245Zm0-10.395H127.9v-5.044h1.245Zm0-10.4H127.9v-5.044h1.245Zm0-10.395H127.9v-5.044h1.245Zm0-10.4H127.9v-5.044h1.245Zm0-10.4H127.9V261.8h1.245Zm0-10.395H127.9V251.4h1.245Zm0-10.4H127.9V241h1.245Zm0-10.4H127.9v-5.044h1.245Zm0-10.4H127.9v-5.044h1.245Z" transform="translate(-28.917 -215.494)" fill="#5c5251"/>
        </g>
        <path id="패스_88644" data-name="패스 88644" d="M309.591,223.714c-.018-.2-.053-.4-.088-.6a6.225,6.225,0,0,0-.184-.825c-.035-.158-.088-.307-.132-.456s-.105-.3-.158-.448-.123-.3-.184-.439a8.3,8.3,0,0,0-.421-.833c-.079-.14-.167-.272-.254-.413-.079-.122-.167-.254-.254-.376s-.184-.247-.281-.369c-.193-.236-.395-.473-.614-.692-.1-.115-.219-.219-.333-.325-.1-.088-.193-.176-.281-.254a9.522,9.522,0,0,0-1.386-.974c-.193-.115-.386-.219-.588-.317-.237-.1-.465-.2-.7-.3-.184-.07-.368-.132-.561-.194-.219-.069-.439-.122-.658-.175-.1-.018-.194-.045-.29-.062a9.375,9.375,0,0,0-1.088-.149c-.237-.018-.465-.025-.7-.025H38.128a9.21,9.21,0,0,0-9.211,9.211V259.8h.071c.21,0,.429.008.64.018H29.7a14.912,14.912,0,0,1,2.069,29.546,14.5,14.5,0,0,1-2.78.264h-.071v35.09a9.21,9.21,0,0,0,9.211,9.211h262.3a9.21,9.21,0,0,0,9.211-9.211v-35.09a14.914,14.914,0,0,1,0-29.827V224.705A9.257,9.257,0,0,0,309.591,223.714Zm-180.446,105.5H127.9V324.17h1.245Zm0-10.4H127.9v-5.044h1.245Zm0-10.395H127.9v-5.044h1.245Zm0-10.4H127.9v-5.044h1.245Zm0-10.395H127.9v-5.044h1.245Zm0-10.4H127.9v-5.044h1.245Zm0-10.4H127.9V261.8h1.245Zm0-10.395H127.9V251.4h1.245Zm0-10.4H127.9V241h1.245Zm0-10.4H127.9v-5.044h1.245Zm0-10.4H127.9v-5.044h1.245Z" transform="translate(-28.917 -215.494)" fill="#fcfcfc"/>
      </g>
      <text id="POINT-2" data-name="POINT" transform="translate(171 426)" fill="#999" font-size="24" font-family="SpoqaHanSansNeo-Bold, Spoqa Han Sans Neo" font-weight="700"><tspan x="0" y="0">POINT</tspan></text>
      <g id="그룹_1177" data-name="그룹 1177" transform="translate(39.353 -1.378)">
        <g id="그룹_1176" data-name="그룹 1176" transform="translate(52 359.102)">
          <rect id="사각형_4578" data-name="사각형 4578" width="32.147" height="1.091" transform="translate(0)" fill="#494949"/>
          <rect id="사각형_4579" data-name="사각형 4579" width="32.147" height="0.728" transform="translate(0 2.801)" fill="#494949"/>
          <rect id="사각형_4580" data-name="사각형 4580" width="32.147" height="0.728" transform="translate(0 5.421)" fill="#494949"/>
          <rect id="사각형_4581" data-name="사각형 4581" width="32.147" height="1.455" transform="translate(0 7.676)" fill="#494949"/>
          <rect id="사각형_4582" data-name="사각형 4582" width="32.147" height="0.727" transform="translate(0 10.661)" fill="#494949"/>
          <rect id="사각형_4583" data-name="사각형 4583" width="32.147" height="0.727" transform="translate(0 13.28)" fill="#494949"/>
          <rect id="사각형_4584" data-name="사각형 4584" width="32.147" height="0.509" transform="translate(0 15.059)" fill="#494949"/>
          <rect id="사각형_4585" data-name="사각형 4585" width="32.147" height="1.092" transform="translate(0 16.882)" fill="#494949"/>
          <rect id="사각형_4586" data-name="사각형 4586" width="32.147" height="0.727" transform="translate(0 19.684)" fill="#494949"/>
          <rect id="사각형_4587" data-name="사각형 4587" width="32.147" height="2.183" transform="translate(0 21.576)" fill="#494949"/>
          <rect id="사각형_4588" data-name="사각형 4588" width="32.147" height="0.727" transform="translate(0 24.924)" fill="#494949"/>
          <rect id="사각형_4589" data-name="사각형 4589" width="32.147" height="0.728" transform="translate(0 27.543)" fill="#494949"/>
          <rect id="사각형_4590" data-name="사각형 4590" width="32.147" height="0.728" transform="translate(0 30.163)" fill="#494949"/>
          <rect id="사각형_4591" data-name="사각형 4591" width="32.147" height="0.728" transform="translate(0 32.783)" fill="#494949"/>
          <rect id="사각형_4592" data-name="사각형 4592" width="32.147" height="0.728" transform="translate(0 35.402)" fill="#494949"/>
          <rect id="사각형_4593" data-name="사각형 4593" width="32.147" height="0.728" transform="translate(0 38.022)" fill="#494949"/>
          <rect id="사각형_4594" data-name="사각형 4594" width="32.147" height="0.728" transform="translate(0 40.642)" fill="#494949"/>
          <rect id="사각형_4595" data-name="사각형 4595" width="32.147" height="2.183" transform="translate(0 42.792)" fill="#494949"/>
          <rect id="사각형_4596" data-name="사각형 4596" width="32.147" height="0.728" transform="translate(0 46.803)" fill="#494949"/>
          <rect id="사각형_4597" data-name="사각형 4597" width="32.147" height="1.091" transform="translate(0 49.006)" fill="#494949"/>
          <rect id="사각형_4598" data-name="사각형 4598" width="32.147" height="0.728" transform="translate(0 51.121)" fill="#494949"/>
          <rect id="사각형_4599" data-name="사각형 4599" width="32.147" height="0.727" transform="translate(0 53.741)" fill="#494949"/>
          <rect id="사각형_4600" data-name="사각형 4600" width="32.147" height="0.728" transform="translate(0 56.361)" fill="#494949"/>
          <rect id="사각형_4601" data-name="사각형 4601" width="32.147" height="1.092" transform="translate(0 58.797)" fill="#494949"/>
          <rect id="사각형_4602" data-name="사각형 4602" width="32.147" height="0.728" transform="translate(0 61.6)" fill="#494949"/>
          <rect id="사각형_4603" data-name="사각형 4603" width="32.147" height="0.728" transform="translate(0 64.22)" fill="#494949"/>
          <rect id="사각형_4604" data-name="사각형 4604" width="32.147" height="0.727" transform="translate(0 66.84)" fill="#494949"/>
          <rect id="사각형_4605" data-name="사각형 4605" width="32.147" height="1.456" transform="translate(0 69.096)" fill="#494949"/>
        </g>
      </g>
      <path id="패스_88645" data-name="패스 88645" d="M-38.382,357.709v-35.14a15.081,15.081,0,0,1-15.14-14.935A15.081,15.081,0,0,1-38.382,292.7V257.557a8.88,8.88,0,0,0-.054-.992c-.018-.2-.054-.4-.089-.6a6.06,6.06,0,0,0-.188-.826c-.036-.158-.089-.308-.133-.456s-.108-.3-.162-.449-.125-.3-.188-.439a8.169,8.169,0,0,0-.43-.834c-.081-.141-.17-.273-.26-.414-.08-.122-.17-.255-.26-.377s-.188-.247-.286-.37c-.2-.236-.4-.474-.626-.693-.106-.115-.224-.22-.34-.326l-.286-.255a9.707,9.707,0,0,0-1.413-.974c-.2-.115-.394-.22-.6-.317-.241-.1-.474-.2-.716-.3-.188-.07-.376-.132-.572-.193-.224-.069-.447-.122-.671-.175-.1-.018-.2-.045-.3-.062a9.767,9.767,0,0,0-1.111-.149c-.242-.018-.474-.026-.716-.026H-92v118.6h44.222A9.31,9.31,0,0,0-38.382,357.709Z" transform="translate(364.299 86.667)" fill="#8b80f8"/>
      <path id="패스_88646" data-name="패스 88646" d="M-342.687,248.333a9.318,9.318,0,0,0-9.4,9.24v35.2h.072c.214,0,.438.009.652.018h.072a15.191,15.191,0,0,1,2.111.246,15.026,15.026,0,0,1,12.377,14.7,15.025,15.025,0,0,1-12.377,14.7,15.111,15.111,0,0,1-2.836.265h-.072v35.2a9.317,9.317,0,0,0,9.4,9.24h18.867v-118.8Z" transform="translate(392.083 86.667)" fill="#8b80f8"/>
    </g>
  </g>
</svg>
