<svg xmlns="http://www.w3.org/2000/svg" width="35" height="34.996" viewBox="0 0 35 34.996">
  <g id="그룹_1379" data-name="그룹 1379" transform="translate(-64.916 -233.875)">
    <path id="패스_529" data-name="패스 529" d="M99.916,251.375a17.5,17.5,0,1,1-17.5-17.5A17.5,17.5,0,0,1,99.916,251.375Z" fill="#df2534"/>
    <path id="패스_530" data-name="패스 530" d="M180.606,298.1v0Z" transform="translate(-89.893 -49.904)" fill="#fff"/>
    <g id="그룹_1378" data-name="그룹 1378" transform="translate(66.209 236.311)">
      <path id="패스_531" data-name="패스 531" d="M78.206,272.24a2.957,2.957,0,0,0-1.972-.364,6.3,6.3,0,0,0,1.936-4.257,3.379,3.379,0,0,0-.02-.4,1.95,1.95,0,0,0-1.138-1.829c-.652-.244-1.848-.121-3.749,1.822l-1.141,1.278a9.383,9.383,0,0,0-1.738,4.091,23.929,23.929,0,0,0,.685,9.266,2.175,2.175,0,0,0,1.138,1.431,2.581,2.581,0,0,0,2.184-.4l.176-.088.678-.3.659-.29.8-.352a5.705,5.705,0,0,0,1.646-.9,4.761,4.761,0,0,0,1.48-2.27,7.614,7.614,0,0,0,.28-1.532,7.146,7.146,0,0,0-.078-2.06A4.094,4.094,0,0,0,78.206,272.24Zm-6.092,2.4c0,.013.036.422.036.422a.215.215,0,0,0,.365.171,3.043,3.043,0,0,1,2.666-.836c.681.236,1.144.939,1.385,2.091a3.487,3.487,0,0,1-2.194,4.054l-.036.016-1.323.649a.2.2,0,0,1-.156-.007c-.081-.042-.1-.094-.16-.238a27.985,27.985,0,0,1-.87-10.065,1.722,1.722,0,0,1,.336-.782l1.112-1.185.124-.135c.6-.587,1.17-.88,1.477-.753.254.108.316.515.319.835.052,1.731-.916,3.5-2.944,5.4A.432.432,0,0,0,72.113,274.641Z" transform="translate(-70.215 -260.064)" fill="#fff"/>
      <path id="패스_532" data-name="패스 532" d="M122.425,245.944c-.372-1.275-.978-1.542-1.154-1.6a10.132,10.132,0,0,0-4.847-.333,9.379,9.379,0,0,0-5.874,3.56,8.79,8.79,0,0,0-1.581,6.836,8.551,8.551,0,0,0,3.618,5.773A11.04,11.04,0,0,0,121.1,261.5a10.477,10.477,0,0,0,4.7-2.207,1.915,1.915,0,0,0,.649-1.5,5.424,5.424,0,0,0-.234-1.415c-.072-.261-.186-.339-.368-.339-.134,0-.274.153-.3.186a6.981,6.981,0,0,1-4.026,2.127c-4.443.854-7.859-1.221-8.707-5.289a6.056,6.056,0,0,1,.857-4.759,6.18,6.18,0,0,1,4.257-2.484,7.7,7.7,0,0,1,4.068.5S122.543,246.477,122.425,245.944Z" transform="translate(-99.407 -243.859)" fill="#fff"/>
    </g>
  </g>
</svg>
