<svg xmlns="http://www.w3.org/2000/svg" width="40.52" height="40.52" viewBox="0 0 40.52 40.52">
  <path id="shopping-bag" d="M34.611,10.468H30.39V10.13a10.13,10.13,0,0,0-20.26,0v.338H5.909A5.982,5.982,0,0,0,0,16.377V31.234A9.369,9.369,0,0,0,9.286,40.52H31.234a9.369,9.369,0,0,0,9.286-9.286V16.377A5.982,5.982,0,0,0,34.611,10.468ZM15.195,10.13a5.065,5.065,0,0,1,10.13,0v.338H15.195Zm20.26,21.1a4.18,4.18,0,0,1-4.221,4.221H9.286a4.18,4.18,0,0,1-4.221-4.221V16.377a.8.8,0,0,1,.844-.844H10.13v2.195a2.532,2.532,0,1,0,5.065,0V15.533h10.13v2.195a2.532,2.532,0,1,0,5.065,0V15.533h4.221a.8.8,0,0,1,.844.844Z" fill="#4c5a81"/>
</svg>
