<?xml version="1.0" encoding="utf-8"?>
<!-- Generator: Adobe Illustrator 27.0.0, SVG Export Plug-In . SVG Version: 6.00 Build 0)  -->
<svg version="1.1" id="Layer_1" xmlns="http://www.w3.org/2000/svg" xmlns:xlink="http://www.w3.org/1999/xlink" x="0px" y="0px"
	 viewBox="0 0 24 24" style="enable-background:new 0 0 24 24;" xml:space="preserve">
<style type="text/css">
	.st0{fill:none;stroke:#57648D;stroke-width:2;stroke-linecap:round;stroke-linejoin:round;}
	.st1{fill:none;stroke:#54638D;stroke-width:2;stroke-linecap:round;stroke-linejoin:round;}
	.st2{fill-rule:evenodd;clip-rule:evenodd;fill:#54638D;}
</style>
<path class="st0" d="M11,15H8c-1.1,0-2.1,0.4-2.8,1C4.4,16.6,4,17.4,4,18.3V20"/>
<path class="st1" d="M12,12c2.2,0,4-1.8,4-4c0-2.2-1.8-4-4-4C9.8,4,8,5.8,8,8C8,10.2,9.8,12,12,12z"/>
<path class="st2" d="M17.1,12c-0.2,0-0.5,0.2-0.5,0.4l-0.2,1c-0.3,0.1-0.6,0.3-0.9,0.5l-1-0.4c-0.2-0.1-0.5,0-0.6,0.2l-0.9,1.6
	c-0.1,0.2-0.1,0.5,0.1,0.6l0.8,0.6c0,0.2,0,0.4,0,0.5c0,0.2,0,0.4,0,0.5l-0.8,0.6C13,18.5,12.9,18.8,13,19l0.9,1.6
	c0.1,0.2,0.4,0.3,0.6,0.2l1-0.4c0.3,0.2,0.6,0.4,0.9,0.5l0.1,1c0,0.2,0.2,0.4,0.5,0.4h1.8c0.2,0,0.5-0.2,0.5-0.4l0.2-1
	c0.3-0.1,0.6-0.3,0.9-0.5l1,0.4c0.2,0.1,0.5,0,0.6-0.2l0.9-1.6c0.1-0.2,0.1-0.5-0.1-0.6L22,17.7c0-0.2,0-0.4,0-0.5
	c0-0.2,0-0.4,0-0.5l0.8-0.6c0.2-0.2,0.3-0.4,0.1-0.6l-0.9-1.6c-0.1-0.2-0.4-0.3-0.6-0.2l-1,0.4c-0.3-0.2-0.6-0.4-0.9-0.5l-0.1-1
	c0-0.2-0.2-0.4-0.5-0.4H17.1z M19.7,17.2c0,1-0.8,1.7-1.7,1.7c-1,0-1.7-0.8-1.7-1.7s0.8-1.7,1.7-1.7C19,15.5,19.7,16.2,19.7,17.2z"
	/>
</svg>
