<svg id="그룹_1219" data-name="그룹 1219" xmlns="http://www.w3.org/2000/svg" width="18.634" height="12.01" viewBox="0 0 18.634 12.01">
  <path id="패스_86817" data-name="패스 86817" d="M446.178,516.972h5.911v-1.56h-11.5v2.859h-3.211l-2.768,4.547v2.645h1.96a1.706,1.706,0,1,0,3.369,0h7a1.7,1.7,0,1,0,3.39.254,1.737,1.737,0,0,0-.021-.254h1.772V523.9h-9.937v-6.931Zm-7.906,9.635a.873.873,0,1,1,.873-.873A.873.873,0,0,1,438.272,526.607Zm2.234-5.19h-3.214l.966-1.587h2.248Zm8.145,3.443a.873.873,0,1,1-.873.873A.873.873,0,0,1,448.651,524.86Z" transform="translate(-434.614 -515.412)" fill="#bdbebf"/>
  <path id="패스_86818" data-name="패스 86818" d="M484.579,524.47h-4.357v1.18h6.411l.3-1.18Z" transform="translate(-468.301 -522.102)" fill="#8b80f8"/>
  <path id="패스_86819" data-name="패스 86819" d="M484.579,539.216h-4.357v1.18h5.587l.3-1.18Z" transform="translate(-468.301 -532.994)" fill="#8b80f8"/>
  <path id="패스_86820" data-name="패스 86820" d="M484.579,531.843h-4.357v1.18h6l.3-1.18Z" transform="translate(-468.301 -527.548)" fill="#8b80f8"/>
</svg>
