<svg id="그룹_1218" data-name="그룹 1218" xmlns="http://www.w3.org/2000/svg" width="14.923" height="17.701" viewBox="0 0 14.923 17.701">
  <g id="그룹_1216" data-name="그룹 1216" transform="translate(0)">
    <path id="패스_86815" data-name="패스 86815" d="M450.759,365.84V352.052h4.47v-.809a3.1,3.1,0,0,1,6.209,0v.809h4.244V365.84ZM452.3,364.3h11.848v-1.135H452.3Zm0-2.347h11.848v-8.365H452.3Zm6.037-12.279a1.569,1.569,0,0,0-1.567,1.567v.809H459.9v-.809A1.569,1.569,0,0,0,458.334,349.676Z" transform="translate(-450.759 -348.139)" fill="#bdbebf"/>
  </g>
  <g id="그룹_1217" data-name="그룹 1217" transform="translate(3.962 6.465)">
    <path id="패스_86816" data-name="패스 86816" d="M471.072,369.671a.465.465,0,0,0-.64.154l-3.228,3.913-2.479-1.833a.465.465,0,0,0-.688.626l3.323,3.684,3.867-5.9A.466.466,0,0,0,471.072,369.671Z" transform="translate(-463.915 -369.603)" fill="#8b80f8"/>
  </g>
</svg>
