<svg xmlns="http://www.w3.org/2000/svg" width="28.114" height="24.848" viewBox="0 0 28.114 24.848">
  <path id="heart_1_" data-name="heart (1)" d="M20.192,1.851A7.688,7.688,0,0,0,14.047,5.02,7.688,7.688,0,0,0,7.9,1.851,8.235,8.235,0,0,0,0,10.367C0,15.695,5.472,21.4,10.067,25.246a6.192,6.192,0,0,0,7.97,0C22.628,21.4,28.1,15.695,28.1,10.367a8.235,8.235,0,0,0-7.912-8.516Zm-4.416,20.7a2.685,2.685,0,0,1-3.459,0c-5.6-4.691-8.8-9.134-8.8-12.189a4.732,4.732,0,0,1,4.39-5,4.732,4.732,0,0,1,4.39,5,1.756,1.756,0,1,0,3.512,0,4.732,4.732,0,0,1,4.39-5,4.732,4.732,0,0,1,4.39,5C24.582,13.422,21.372,17.864,15.776,22.555Z" transform="translate(0.004 -1.851)" fill="#8b80f8"/>
</svg>
