<svg xmlns="http://www.w3.org/2000/svg" width="20" height="20" viewBox="0 0 20 20">
  <g id="그룹_610" data-name="그룹 610" transform="translate(-1796 -713)">
    <rect id="사각형_4473" data-name="사각형 4473" width="20" height="20" transform="translate(1796 713)" fill="none" opacity="0.2"/>
    <g id="그룹_1151" data-name="그룹 1151" transform="translate(717.181 121.702)">
      <path id="패스_86820" data-name="패스 86820" d="M1093.524,616.178h-10.761a2.693,2.693,0,0,1-2.69-2.69V602.726a2.693,2.693,0,0,1,2.69-2.69h5.381a1.153,1.153,0,0,1,0,2.306h-5.381a.385.385,0,0,0-.385.384v10.761a.385.385,0,0,0,.385.384h10.761a.385.385,0,0,0,.384-.384v-5.381a1.153,1.153,0,1,1,2.306,0v5.381A2.693,2.693,0,0,1,1093.524,616.178Z" transform="translate(0 -6.046)" fill="#4c5a81"/>
      <path id="패스_86821" data-name="패스 86821" d="M1115.257,592.551a2.591,2.591,0,0,1,1.832,4.424l-7.3,7.3a.961.961,0,0,1-.446.253l-3.075.769a.961.961,0,0,1-1.165-1.165l.769-3.075a.961.961,0,0,1,.253-.446l7.3-7.3A2.575,2.575,0,0,1,1115.257,592.551Zm-6.641,10.179,7.114-7.114a.67.67,0,0,0,0-.947.686.686,0,0,0-.948,0l-7.114,7.114-.316,1.263Z" transform="translate(-20.196 0)" fill="#4c5a81"/>
    </g>
  </g>
</svg>
