<svg xmlns="http://www.w3.org/2000/svg" width="32" height="32" viewBox="0 0 32 32">
  <g id="icon01" transform="translate(-20 -324)">
    <g id="_56dp" data-name="56dp" transform="translate(20 324)">
      <rect id="사각형_8" data-name="사각형 8" width="32" height="32" rx="4" fill="#af8eff"/>
    </g>
    <path id="패스_88512" data-name="패스 88512" d="M140.579,562.252h-.873a3.857,3.857,0,0,0,.678-2.625c-.115-.613-.595-1.675-2.507-1.9-2.645-.307-4.383,1.6-5.3,3.382-.922-1.78-2.661-3.689-5.3-3.382-1.912.222-2.392,1.284-2.507,1.9a3.856,3.856,0,0,0,.678,2.625h-1.076a1.275,1.275,0,0,0-1.274,1.274v3.018a1.276,1.276,0,0,0,1.274,1.274h.74v8.6a1.275,1.275,0,0,0,1.274,1.274h9.7a.673.673,0,0,0,0-1.346h-1.029v-8.532h3.449v9.206a.673.673,0,0,0,1.346,0v-9.206h.74a1.276,1.276,0,0,0,1.274-1.274v-3.018A1.275,1.275,0,0,0,140.579,562.252Zm-2.858-3.185c1.214.141,1.309.644,1.34.81a3.25,3.25,0,0,1-1.084,2.376h-4.444C134.078,560.989,135.372,558.793,137.722,559.067Zm-11.638.81c.031-.165.126-.668,1.34-.81,2.375-.277,3.657,1.919,4.193,3.185h-4.449A3.251,3.251,0,0,1,126.084,559.877Zm-1.648,3.722H129.9v2.874h-5.463Zm2.014,4.22H129.9v8.532h-3.449Zm4.8,8.532V563.6H133.7v12.752Zm9.263-9.879h-5.463V563.6h5.463Z" transform="translate(-96.089 -227.697)" fill="#fff"/>
  </g>
</svg>
