<svg xmlns="http://www.w3.org/2000/svg" width="18.061" height="18.061" viewBox="0 0 18.061 18.061">
  <g id="그룹_1256" data-name="그룹 1256" transform="translate(-430.002 -718.034)">
    <path id="패스_86831" data-name="패스 86831" d="M451.653,733.649a.751.751,0,0,0-1.064,0l-1.946,1.946-1.946-1.946a.753.753,0,0,0-1.064,1.064l1.946,1.946-1.946,1.946a.753.753,0,0,0,1.064,1.064l1.946-1.946,1.946,1.946a.752.752,0,0,0,1.064-1.064l-1.946-1.946,1.946-1.946A.752.752,0,0,0,451.653,733.649Z" transform="translate(-9.61 -9.594)" fill="#8b80f8"/>
    <path id="패스_86832" data-name="패스 86832" d="M439.033,718.034a9.03,9.03,0,1,0,9.03,9.03A9.031,9.031,0,0,0,439.033,718.034Zm0,16.556a7.525,7.525,0,1,1,7.526-7.526A7.525,7.525,0,0,1,439.033,734.59Z" fill="#bdbebf"/>
  </g>
</svg>
