<svg xmlns="http://www.w3.org/2000/svg" width="24" height="24" viewBox="0 0 24 24">
  <g id="그룹_1448" data-name="그룹 1448" transform="translate(1967 2353)">
    <rect id="사각형_4808" data-name="사각형 4808" width="24" height="24" transform="translate(-1967 -2353)" fill="red" opacity="0"/>
    <g id="그룹_1447" data-name="그룹 1447" transform="translate(-7174.251 -4450.578)">
      <path id="패스_88560" data-name="패스 88560" d="M5212.294,2119.578h13.914a3.047,3.047,0,0,0,3.043-3.043v-13.913a3.047,3.047,0,0,0-3.043-3.043h-13.914a3.046,3.046,0,0,0-3.043,3.043v13.913A3.047,3.047,0,0,0,5212.294,2119.578Zm-.435-16.957a.435.435,0,0,1,.435-.435h13.914a.435.435,0,0,1,.434.435v13.913a.435.435,0,0,1-.434.435h-13.914a.435.435,0,0,1-.435-.435Z" fill="#fff"/>
      <path id="패스_88561" data-name="패스 88561" d="M5298.97,2180.033a.966.966,0,0,0-1.367,0l-3.267,3.267-3.267-3.267a.967.967,0,0,0-1.367,1.367l3.267,3.267-3.267,3.266a.967.967,0,0,0,1.367,1.367l3.267-3.267,3.267,3.267a.966.966,0,1,0,1.367-1.367l-3.267-3.266,3.267-3.267A.967.967,0,0,0,5298.97,2180.033Z" transform="translate(-75.085 -75.089)" fill="#fff"/>
    </g>
  </g>
</svg>
