<svg xmlns="http://www.w3.org/2000/svg" width="17.794" height="15.904" viewBox="0 0 17.794 15.904">
  <g id="그룹_246" data-name="그룹 246" transform="translate(0 0)">
    <path id="패스_86807" data-name="패스 86807" d="M15.2,2.71h-.32a1.111,1.111,0,0,0,0,2.221h.32a.35.35,0,0,1,.371.328.309.309,0,0,1,0,.043l0,6.524a1.836,1.836,0,0,1-1.818,1.854H4.039a1.836,1.836,0,0,1-1.818-1.854l0-6.524a.308.308,0,0,1,0-.043.35.35,0,0,1,.371-.328h.32a1.111,1.111,0,0,0,0-2.221h-.32A2.628,2.628,0,0,0,0,5.3v6.524A4.115,4.115,0,0,0,4.078,15.9h9.638a4.115,4.115,0,0,0,4.078-4.078V5.3A2.628,2.628,0,0,0,15.2,2.71" fill="#8b80f8"/>
    <line id="선_1" data-name="선 1" y2="6.855" transform="translate(8.897 1)" fill="none" stroke="#8b80f8" stroke-linecap="round" stroke-width="2"/>
    <line id="선_2" data-name="선 2" x2="3.231" y2="3.231" transform="translate(5.665 5.57)" fill="none" stroke="#8b80f8" stroke-linecap="round" stroke-width="2"/>
    <line id="선_3" data-name="선 3" x1="3.231" y2="3.231" transform="translate(8.898 5.57)" fill="none" stroke="#8b80f8" stroke-linecap="round" stroke-width="2"/>
  </g>
</svg>
