<svg xmlns="http://www.w3.org/2000/svg" width="14.389" height="19" viewBox="0 0 14.389 19">
  <g id="icon_휴지통" transform="translate(-315.452 -332.46)">
    <path id="패스_88516" data-name="패스 88516" d="M326.318,334.835h-5a1.188,1.188,0,0,1,0-2.375h5a1.188,1.188,0,0,1,0,2.375Z" transform="translate(-1.169 0)" fill="#4c5a81"/>
    <path id="패스_88517" data-name="패스 88517" d="M328.685,338.683H316.608a1.188,1.188,0,0,1,0-2.375h12.077a1.188,1.188,0,0,1,0,2.375Z" transform="translate(0 -0.893)" fill="#4c5a81"/>
    <g id="그룹_608" data-name="그룹 608" transform="translate(319.704 339.115)">
      <path id="패스_88518" data-name="패스 88518" d="M322.257,351.13a1.188,1.188,0,0,1-1.187-1.188V342.7a1.188,1.188,0,0,1,2.375,0v7.239A1.188,1.188,0,0,1,322.257,351.13Z" transform="translate(-321.069 -341.516)" fill="#4c5a81"/>
      <path id="패스_88519" data-name="패스 88519" d="M326.69,351.13a1.188,1.188,0,0,1-1.187-1.188V342.7a1.188,1.188,0,0,1,2.375,0v7.239A1.188,1.188,0,0,1,326.69,351.13Z" transform="translate(-321.993 -341.516)" fill="#4c5a81"/>
    </g>
    <path id="패스_88520" data-name="패스 88520" d="M327.4,353.69h-9.041a1.167,1.167,0,0,1-1.15-1.115l-.63-10.62a1.174,1.174,0,0,1,1.079-1.258,1.157,1.157,0,0,1,1.22,1.112l.564,9.506h6.874l.564-9.506a1.152,1.152,0,1,1,2.3.146l-.63,10.62A1.167,1.167,0,0,1,327.4,353.69Z" transform="translate(-0.235 -2.23)" fill="#4c5a81"/>
  </g>
</svg>
