<svg xmlns="http://www.w3.org/2000/svg" width="23.441" height="26.081" viewBox="0 0 23.441 26.081">
  <g id="그룹_1159" data-name="그룹 1159" transform="translate(0 0)">
    <path id="패스_2325" data-name="패스 2325" d="M2156.247,1887.443a4.557,4.557,0,0,0-7.252-5.349.381.381,0,1,1-.744,0,4.557,4.557,0,0,0-7.252,5.349,4.351,4.351,0,0,0-4.1,4.336v10.715a4.354,4.354,0,0,0,4.349,4.349h14.743a4.354,4.354,0,0,0,4.349-4.349v-10.715A4.351,4.351,0,0,0,2156.247,1887.443Zm-3.032-3.124a1.413,1.413,0,0,1,0,1.992,1.6,1.6,0,1,1-2-2A1.414,1.414,0,0,1,2153.215,1884.319Zm-9.185,0a1.414,1.414,0,0,1,1.993,0,1.6,1.6,0,1,1-2,2A1.414,1.414,0,0,1,2144.03,1884.318Zm-3.983,18.176v-10.715a1.205,1.205,0,0,1,1.2-1.2h5.811c0,.042-.012.083-.012.126v12.88c0,.04.009.078.012.118h-5.811A1.205,1.205,0,0,1,2140.047,1902.494Zm17.15,0a1.2,1.2,0,0,1-1.2,1.2h-5.811c0-.04.012-.078.012-.118V1890.7c0-.043-.01-.084-.014-.126h5.813a1.2,1.2,0,0,1,1.2,1.2Z" transform="translate(-2136.902 -1880.762)" fill="#8b80f8"/>
  </g>
</svg>
