<svg xmlns="http://www.w3.org/2000/svg" width="19.795" height="22" viewBox="0 0 19.795 22">
  <g id="settings" transform="translate(-1.203)">
    <path id="패스_86820" data-name="패스 86820" d="M12,8a4,4,0,1,0,4,4A4,4,0,0,0,12,8Zm0,6a2,2,0,1,1,2-2A2,2,0,0,1,12,14Z" transform="translate(-0.9 -1)" fill="#fff"/>
    <path id="패스_86821" data-name="패스 86821" d="M19.62,12.742l-.407-.235a8.342,8.342,0,0,0,0-3.016l.407-.235A2.752,2.752,0,1,0,16.87,4.49l-.408.236A8.229,8.229,0,0,0,13.85,3.22V2.75a2.75,2.75,0,1,0-5.5,0v.47A8.229,8.229,0,0,0,5.74,4.729l-.41-.237A2.752,2.752,0,1,0,2.58,9.258l.407.235a8.342,8.342,0,0,0,0,3.016l-.407.235A2.752,2.752,0,1,0,5.33,17.51l.408-.236A8.229,8.229,0,0,0,8.35,18.78v.47a2.75,2.75,0,1,0,5.5,0v-.47a8.229,8.229,0,0,0,2.611-1.509l.41.237a2.752,2.752,0,1,0,2.75-4.767ZM17.284,9.28a6.461,6.461,0,0,1,0,3.437.917.917,0,0,0,.425,1.039l.994.574a.917.917,0,1,1-.917,1.589l-1-.576a.917.917,0,0,0-1.114.151A6.4,6.4,0,0,1,12.7,17.213a.917.917,0,0,0-.688.888V19.25a.917.917,0,1,1-1.833,0V18.1a.917.917,0,0,0-.688-.888,6.4,6.4,0,0,1-2.972-1.722.917.917,0,0,0-1.114-.151l-.994.575A.917.917,0,1,1,3.5,14.327l.994-.574a.917.917,0,0,0,.425-1.039,6.461,6.461,0,0,1,0-3.438.917.917,0,0,0-.426-1.035L3.5,7.669A.917.917,0,0,1,4.414,6.08l1,.576a.917.917,0,0,0,1.113-.148A6.4,6.4,0,0,1,9.5,4.79a.917.917,0,0,0,.688-.892V2.75a.917.917,0,1,1,1.833,0V3.9a.917.917,0,0,0,.688.888,6.4,6.4,0,0,1,2.973,1.722.917.917,0,0,0,1.114.151l.994-.575A.917.917,0,1,1,18.7,7.673l-.994.574a.917.917,0,0,0-.424,1.035Z" transform="translate(0)" fill="#fff"/>
  </g>
</svg>
