<svg xmlns="http://www.w3.org/2000/svg" width="18.26" height="19.867" viewBox="0 0 18.26 19.867">
  <g id="그룹_1381" data-name="그룹 1381" transform="translate(-4595.598 -541.681)">
    <path id="패스_88546" data-name="패스 88546" d="M4612.653,592.588H4596.8a1.2,1.2,0,1,1,0-2.409h15.849a1.2,1.2,0,1,1,0,2.409Z" transform="translate(0 -45.063)" fill="#4c5a81"/>
    <path id="패스_88547" data-name="패스 88547" d="M4661.082,544.09h-7.858a1.2,1.2,0,1,1,0-2.409h7.858a1.2,1.2,0,1,1,0,2.409Z" transform="translate(-52.425)" fill="#4c5a81"/>
    <g id="그룹_1380" data-name="그룹 1380" transform="translate(4597.521 547.064)">
      <g id="그룹_1379" data-name="그룹 1379" transform="translate(3.547 1.652)">
        <path id="패스_88548" data-name="패스 88548" d="M4673.834,650.932a1,1,0,0,1-1-1v-7.914a1,1,0,1,1,2.007,0v7.914A1,1,0,0,1,4673.834,650.932Z" transform="translate(-4672.83 -641.01)" fill="#4c5a81"/>
        <path id="패스_88549" data-name="패스 88549" d="M4711.332,650.932a1,1,0,0,1-1-1v-7.914a1,1,0,0,1,2.008,0v7.914A1,1,0,0,1,4711.332,650.932Z" transform="translate(-4707.672 -641.01)" fill="#4c5a81"/>
        <path id="패스_88550" data-name="패스 88550" d="M4748.83,650.932a1,1,0,0,1-1-1v-7.914a1,1,0,0,1,2.008,0v7.914A1,1,0,0,1,4748.83,650.932Z" transform="translate(-4742.514 -641.01)" fill="#4c5a81"/>
      </g>
      <path id="패스_88551" data-name="패스 88551" d="M4657.415,629.759h8.293c.307,0,.65-.454.65-1.062V617.685h-9.595V628.7C4656.764,629.305,4657.108,629.759,4657.415,629.759Z" transform="translate(-4654.355 -617.685)" fill="none"/>
      <path id="패스_88552" data-name="패스 88552" d="M4634.753,628.7c0,.608-.345,1.062-.651,1.062h-8.293c-.308,0-.651-.454-.651-1.062V617.685h-2.409V628.7a3.289,3.289,0,0,0,3.061,3.471h8.293a3.288,3.288,0,0,0,3.06-3.471V617.685h-2.408Z" transform="translate(-4622.748 -617.685)" fill="#4c5a81"/>
    </g>
  </g>
</svg>
