<svg xmlns="http://www.w3.org/2000/svg" width="34" height="41.308" viewBox="0 0 34 41.308">
  <g id="그룹_1158" data-name="그룹 1158" transform="translate(-340 -199)">
    <g id="그룹_1156" data-name="그룹 1156" transform="translate(340 199)">
      <path id="패스_88518" data-name="패스 88518" d="M121.248,77.614c.59-4.592-.8-8.5-4.783-10.326a9.546,9.546,0,0,0-2.853-.862c-.061-.011-.12-.023-.182-.033V66.4a13.538,13.538,0,0,0-3.211-.009c-6.3,1.024-8.538,5.612-7.818,11.222,2.214,11.167-1.4,16-4.824,17.655,4.2-.448,14.249-3.254,12.822-9.379-2.034-1.945-6.042-9.629-4.28-12.149-.425.885-.163,1.951.315,3.364-1.225-3.62,5.054-4.005,7-5.325v1.25a11.576,11.576,0,0,1,2.676,1.185c.727,2.908-.453,7.159-1.772,10.361a10.565,10.565,0,0,1-.9,1.133v.867c-.136.273-.269.529-.4.764a4.716,4.716,0,0,1,.4-.346v1.732c1.634,4.174,9.154,6.172,12.641,6.544C122.647,93.614,119.034,88.781,121.248,77.614Z" transform="translate(-94.818 -66.301)" fill="#cc6291" fill-rule="evenodd"/>
      <path id="패스_88519" data-name="패스 88519" d="M167.229,92.255c1.328-11.261-13.476-14.393-12.793,0,.485,4.617,1.644,7.784,3.083,9.582.52,2.016-.6,7.117-1.362,8.608-.128.25,1.481,5.968-.62,6.677l11.619-.575c-2.144-.846-1.427-5.817-1.568-6.1-.631-1.277-2.144-6.6-1.566-8.776C165.5,99.807,166.711,96.643,167.229,92.255Z" transform="translate(-143.857 -80.542)" fill="#cc6291" fill-rule="evenodd"/>
      <path id="패스_88520" data-name="패스 88520" d="M158.162,118.582c.831-1.331.352-4.1.1-5.577-.044-.258-.094-.545-.106-.669.784-1.617,1.9-6.7,1.354-8.835l-.019-.072-.043-.054c-1.062-1.333-2.447-4.051-3.01-9.427-.145-3.1.44-5.615,1.694-7.267A5.035,5.035,0,0,1,162.2,84.6a6.363,6.363,0,0,1,5.12,2.878,9.139,9.139,0,0,1,1.409,6.455c-.473,4.027-1.587,7.321-3.137,9.274l-.042.052-.018.07c-.6,2.283.894,7.613,1.571,9.032.007.095,0,.348-.008.574-.037,1.245-.115,3.886.956,5.156Z" transform="translate(-145.606 -82.289)" fill="#fff" fill-rule="evenodd"/>
      <path id="패스_88521" data-name="패스 88521" d="M92.724,263.853a33.611,33.611,0,0,0,17-4.488,52.434,52.434,0,0,0-1.255-5.916l-11.632-6.6c-.267,1.118-4.113,6.681-4.113,6.681s-3.845-5.563-4.113-6.681l-11.632,6.6a52.429,52.429,0,0,0-1.255,5.916,33.611,33.611,0,0,0,17,4.488h.009Z" transform="translate(-75.719 -222.545)" fill="#cc6291"/>
      <path id="패스_88522" data-name="패스 88522" d="M147.96,73.017c4.639-1.8,9.79,5.74,7.735,9.816.112-3.641-2.715-4.62-4.317-5.98-1,1.7-8.459,3.217-7.171,7.2-.457-1.413-1.233-2.9-.827-3.788-2.842,4.25-3.031-4.919,3-5.943Z" transform="translate(-132.597 -71.93)" fill="#cc6291" fill-rule="evenodd"/>
    </g>
  </g>
</svg>
