<svg id="그룹_1221" data-name="그룹 1221" xmlns="http://www.w3.org/2000/svg" width="16.645" height="17.229" viewBox="0 0 16.645 17.229">
  <path id="패스_86821" data-name="패스 86821" d="M283.7,679.375q-.185,0-.369-.007l.015-.374c.242.01.486.01.727,0l.016.374C283.957,679.373,283.828,679.375,283.7,679.375Zm-1.124-.07c-.251-.031-.5-.074-.747-.126l.079-.366c.234.05.474.091.715.121Zm2.267,0-.047-.371c.238-.03.479-.072.715-.123l.079.365C285.341,679.228,285.089,679.271,284.841,679.3Zm-3.747-.313c-.243-.074-.484-.159-.715-.252l.139-.347c.222.089.452.171.685.241Zm5.227-.006-.11-.357c.232-.071.462-.153.684-.242l.14.347C286.8,678.825,286.563,678.91,286.321,678.984Zm-6.633-.558c-.227-.114-.45-.238-.662-.369l.2-.318c.2.126.416.244.634.354Zm8.037-.008-.169-.333c.216-.109.429-.229.633-.355l.2.318C288.172,678.18,287.95,678.3,287.725,678.418Zm1.288-.8-.223-.3c.194-.144.383-.3.564-.457l.247.281C289.412,677.313,289.214,677.473,289.012,677.623Zm1.135-1-.27-.258c.166-.173.327-.357.48-.545l.291.235C290.489,676.25,290.321,676.442,290.148,676.622Zm.951-1.178-.31-.21c.135-.2.263-.408.381-.618l.326.183C291.374,675.019,291.24,675.235,291.1,675.444Zm.739-1.322-.341-.154c.1-.22.191-.446.271-.674l.353.125C292.037,673.656,291.942,673.893,291.838,674.122Zm.5-1.427-.362-.094c.06-.231.111-.47.152-.709l.369.063C292.458,672.2,292.405,672.453,292.342,672.695Zm.254-1.492-.373-.031c.02-.239.03-.483.03-.725l.252-.025.122.022C292.628,670.7,292.618,670.953,292.6,671.2Zm-.376-1.518c-.021-.24-.053-.482-.094-.72l.368-.064c.043.248.076.5.1.751Zm-.249-1.428c-.061-.233-.134-.466-.215-.694l.352-.126c.085.237.16.481.225.724Zm-.488-1.365c-.1-.218-.211-.436-.33-.646l.326-.184c.124.22.24.447.344.675Zm-.713-1.263c-.135-.2-.281-.394-.434-.581l.29-.236c.159.2.312.4.453.607Zm-.916-1.124c-.165-.172-.342-.34-.526-.5l.246-.281c.191.167.376.343.549.523Zm-1.092-.955c-.193-.143-.4-.279-.6-.405l.2-.319c.216.132.428.275.629.423Zm-1.237-.758c-.216-.108-.439-.208-.663-.3l.139-.348c.233.093.466.2.691.311Z" transform="translate(-275.983 -662.146)" fill="#8b80f8"/>
  <path id="패스_86822" data-name="패스 86822" d="M273.763,664.643a7.714,7.714,0,1,0,7.714,7.714A7.723,7.723,0,0,0,273.763,664.643Zm.561,13.9v-1.78H273.2v1.78a6.225,6.225,0,0,1-5.629-5.629h1.78V671.8h-1.78a6.224,6.224,0,0,1,5.629-5.629v1.78h1.122v-1.78a6.224,6.224,0,0,1,5.629,5.629h-1.78v1.122h1.78A6.225,6.225,0,0,1,274.324,678.547Z" transform="translate(-266.049 -664.058)" fill="#bdbebf"/>
  <g id="그룹_1220" data-name="그룹 1220" transform="translate(4.438 6.103)">
    <path id="패스_86823" data-name="패스 86823" d="M285.7,689.62a.367.367,0,0,1-.217.171.375.375,0,0,1-.241-.018.431.431,0,0,1-.192-.162.391.391,0,0,1-.064-.26.768.768,0,0,1,.049-.214,1.321,1.321,0,0,1,.107-.223,1.807,1.807,0,0,1,.14-.2,1.2,1.2,0,0,1,.156-.162,1.653,1.653,0,0,1,.333-.2,1.824,1.824,0,0,1,.391-.128,1.743,1.743,0,0,1,.409-.037,1.445,1.445,0,0,1,.382.061,1.539,1.539,0,0,1,.758.483,1.31,1.31,0,0,1,.269.856,1.989,1.989,0,0,1-.046.449,1.261,1.261,0,0,1-.159.382,2.145,2.145,0,0,1-.3.373,6.028,6.028,0,0,1-.462.416c-.061.053-.124.106-.189.159l-.2.159a.989.989,0,0,1-.116.073,1.684,1.684,0,0,0-.153.1.2.2,0,0,0-.079.092c-.008.029.024.045.1.049a1.288,1.288,0,0,0,.214.006c.053,0,.124-.006.214-.006q.159,0,.312-.006a2.624,2.624,0,0,1,.306.006.915.915,0,0,0,.134,0c.049,0,.1,0,.147,0a.782.782,0,0,1,.141.018.265.265,0,0,1,.116.058.259.259,0,0,1,.073.116.555.555,0,0,1,.028.156.585.585,0,0,1-.015.159.248.248,0,0,1-.061.119.241.241,0,0,1-.2.089q-.116,0-.22,0h-2.194q-.061,0-.131.006a.309.309,0,0,1-.125-.012q-.11-.03-.107-.116c0-.057,0-.116,0-.178a.572.572,0,0,1,.073-.284,1.1,1.1,0,0,1,.187-.244,2.321,2.321,0,0,1,.241-.211q.128-.1.238-.189c.106-.094.22-.187.342-.281s.238-.187.349-.281q.214-.177.364-.324a2.05,2.05,0,0,0,.241-.275.984.984,0,0,0,.135-.254.814.814,0,0,0,.043-.266.608.608,0,0,0-.19-.48.7.7,0,0,0-.483-.168.9.9,0,0,0-.4.092.8.8,0,0,0-.308.269c-.025.045-.048.091-.071.137A.938.938,0,0,1,285.7,689.62Z" transform="translate(-284.981 -688.182)" fill="#8b80f8"/>
    <path id="패스_86824" data-name="패스 86824" d="M301.217,688.473a.4.4,0,0,1,.055.172,2.8,2.8,0,0,1,.028.437q0,.223,0,.437,0,.251,0,.5t0,.495v.52h.263a.682.682,0,0,1,.141.015.426.426,0,0,1,.135.052.364.364,0,0,1,.1.092.242.242,0,0,1,.049.134.28.28,0,0,1-.122.266.684.684,0,0,1-.293.082l-.052,0c-.026,0-.056,0-.089,0h-.089c-.026,0-.042,0-.046-.012v.568a1.131,1.131,0,0,1-.012.168.576.576,0,0,1-.046.156.268.268,0,0,1-.1.116.247.247,0,0,1-.077.027c-.03.006-.064.011-.1.015a.658.658,0,0,1-.107,0,.359.359,0,0,1-.089-.015.207.207,0,0,1-.14-.156,1.707,1.707,0,0,1-.043-.223v-.333c0-.075,0-.143-.006-.2s-.01-.092-.019-.092h-1.076c-.118,0-.243,0-.373-.006a.58.58,0,0,1-.336-.11.29.29,0,0,1-.128-.181.4.4,0,0,1,.015-.2.788.788,0,0,1,.1-.2q.067-.1.128-.177.232-.311.449-.636t.437-.642q.122-.165.254-.318c.088-.1.17-.208.248-.318q.085-.128.186-.263a.68.68,0,0,1,.254-.208.671.671,0,0,1,.281-.067A.239.239,0,0,1,301.217,688.473Zm-.6,1.1L299.6,691h1.015Z" transform="translate(-295.446 -688.325)" fill="#8b80f8"/>
  </g>
  <path id="패스_86825" data-name="패스 86825" d="M278.6,728.158l-.318.56-.129-.444-.129-.443.447-.117.447-.117Z" transform="translate(-275.22 -712.256)" fill="#8b80f8"/>
</svg>
