<svg xmlns="http://www.w3.org/2000/svg" width="16.332" height="17.127" viewBox="0 0 16.332 17.127">
  <g id="그룹_1371" data-name="그룹 1371" transform="translate(183.019 -273.528)">
    <path id="패스_88536" data-name="패스 88536" d="M-179.225,281.115a3.8,3.8,0,0,1-3.794-3.793,3.8,3.8,0,0,1,3.794-3.794,3.8,3.8,0,0,1,3.793,3.794A3.8,3.8,0,0,1-179.225,281.115Zm0-4.77a.978.978,0,0,0-.977.977.978.978,0,0,0,.977.976.978.978,0,0,0,.976-.976A.978.978,0,0,0-179.225,276.345Z" fill="#4c5a81"/>
    <path id="패스_88537" data-name="패스 88537" d="M-179.225,329.115a3.8,3.8,0,0,1-3.794-3.793,3.8,3.8,0,0,1,3.794-3.794,3.8,3.8,0,0,1,3.793,3.794A3.8,3.8,0,0,1-179.225,329.115Zm0-4.77a.978.978,0,0,0-.977.977.978.978,0,0,0,.977.977.978.978,0,0,0,.976-.977A.978.978,0,0,0-179.225,324.345Z" transform="translate(0 -38.46)" fill="#4c5a81"/>
    <path id="패스_88538" data-name="패스 88538" d="M-161.13,289.79a1.4,1.4,0,0,1-1-.413,1.409,1.409,0,0,1,0-1.992l9.445-9.445a1.409,1.409,0,0,1,1.992,0,1.409,1.409,0,0,1,0,1.992l-9.445,9.445A1.4,1.4,0,0,1-161.13,289.79Z" transform="translate(-16.41 -3.205)" fill="#4c5a81"/>
    <path id="패스_88539" data-name="패스 88539" d="M-131.334,326.653a1.4,1.4,0,0,1-.995-.412l-4.4-4.388a1.408,1.408,0,0,1,0-1.992,1.408,1.408,0,0,1,1.992,0l4.4,4.388a1.408,1.408,0,0,1,0,1.992A1.4,1.4,0,0,1-131.334,326.653Z" transform="translate(-36.761 -36.793)" fill="#4c5a81"/>
    <path id="패스_88540" data-name="패스 88540" d="M-158.045,299.91a1.4,1.4,0,0,1-1-.412l-3.085-3.085a1.409,1.409,0,0,1,0-1.992,1.408,1.408,0,0,1,1.992,0l3.085,3.085a1.409,1.409,0,0,1,0,1.992A1.4,1.4,0,0,1-158.045,299.91Z" transform="translate(-16.41 -16.41)" fill="#4c5a81"/>
  </g>
</svg>
