<svg xmlns="http://www.w3.org/2000/svg" width="20" height="20" viewBox="0 0 20 20">
  <g id="heart_1_" data-name="heart (1)" transform="translate(-32 -397)">
    <rect id="사각형_4464" data-name="사각형 4464" width="20" height="20" transform="translate(32 397)" fill="#f0d" opacity="0"/>
    <path id="heart_1_2" data-name="heart (1)" d="M13.016,1.851A4.956,4.956,0,0,0,9.054,3.894,4.956,4.956,0,0,0,5.093,1.851,5.309,5.309,0,0,0,0,7.341c0,3.435,3.527,7.112,6.49,9.593a3.992,3.992,0,0,0,5.138,0c2.96-2.48,6.49-6.158,6.49-9.593a5.309,5.309,0,0,0-5.1-5.49ZM10.169,15.2a1.731,1.731,0,0,1-2.23,0C4.332,12.174,2.263,9.31,2.263,7.341a3.051,3.051,0,0,1,2.83-3.226,3.051,3.051,0,0,1,2.83,3.226,1.132,1.132,0,1,0,2.264,0,3.051,3.051,0,0,1,2.83-3.226,3.051,3.051,0,0,1,2.83,3.226C15.846,9.31,13.777,12.174,10.169,15.2Z" transform="translate(33.004 397.149)" fill="#4c5a81"/>
  </g>
</svg>
