<svg xmlns="http://www.w3.org/2000/svg" width="19.56" height="17.537" viewBox="0 0 19.56 17.537">
  <g id="그룹_1377" data-name="그룹 1377" transform="translate(-1676.264 -1057.532)">
    <g id="그룹_1376" data-name="그룹 1376" transform="translate(1676.264 1057.532)">
      <path id="패스_88543" data-name="패스 88543" d="M1692.358,1060.688h-4.082l-.818-1.42v0a3.474,3.474,0,0,0-3-1.733h-4.725a3.469,3.469,0,0,0-3.466,3.466V1071.6a3.469,3.469,0,0,0,3.466,3.465h6.734l5.914-.034a3.474,3.474,0,0,0,3.445-3.466v-7.414A3.47,3.47,0,0,0,1692.358,1060.688Zm1.127,10.88a1.129,1.129,0,0,1-1.12,1.127l-5.907.034h-6.728a1.128,1.128,0,0,1-1.126-1.126V1061a1.127,1.127,0,0,1,1.126-1.126h4.725a1.129,1.129,0,0,1,.976.564l1.155,2.007a1.17,1.17,0,0,0,1.014.586h4.758a1.128,1.128,0,0,1,1.127,1.127Z" transform="translate(-1676.264 -1057.532)" fill="#4c5a81"/>
      <path id="패스_88544" data-name="패스 88544" d="M1855.072,1084.314c.018.027.035.054.051.082l0,0Q1855.1,1084.356,1855.072,1084.314Z" transform="translate(-1843.925 -1082.131)" fill="#4c5a81"/>
    </g>
    <path id="패스_88545" data-name="패스 88545" d="M1781.315,1166.518l.07-.064v2.8a1.115,1.115,0,0,0,2.229,0v-2.8l.07.064a1.115,1.115,0,0,0,1.5-1.65l-1.935-1.759c-.021-.019-.045-.033-.067-.051s-.052-.042-.081-.061a1.086,1.086,0,0,0-.1-.056c-.028-.014-.055-.029-.084-.041a1.178,1.178,0,0,0-.125-.039c-.026-.007-.051-.016-.077-.022a1.12,1.12,0,0,0-.426,0c-.027.005-.052.015-.079.022a1.11,1.11,0,0,0-.123.038c-.03.012-.058.028-.086.042a1.105,1.105,0,0,0-.1.054c-.03.02-.057.042-.085.064s-.044.03-.063.048l-1.935,1.759a1.115,1.115,0,1,0,1.5,1.65Z" transform="translate(-96.578 -98.979)" fill="#4c5a81"/>
  </g>
</svg>
