<svg xmlns="http://www.w3.org/2000/svg" width="22" height="22" viewBox="0 0 22 22">
  <g id="그룹_1264" data-name="그룹 1264" transform="translate(-7359 526)">
    <rect id="사각형_4735" data-name="사각형 4735" width="22" height="22" transform="translate(7359 -526)" fill="#fff" opacity="0"/>
    <path id="패스_86835" data-name="패스 86835" d="M1065.788,1125.515l1.657-2.682a.823.823,0,0,0-.7-1.255h-7.5V1120.5a.823.823,0,1,0-1.646,0v11.228l-.276.019c-2.6.174-5.63,1.05-5.63,2.946,0,1.959,3.385,2.984,6.729,2.984s6.729-1.025,6.729-2.984c0-1.9-3.033-2.772-5.63-2.946l-.276-.019v-2.376h7.5a.823.823,0,0,0,.693-1.267Zm-6.224,7.887a7.28,7.28,0,0,1,3.766,1.074l.249.221-.249.221c-.505.449-2.229,1.117-4.907,1.117s-4.4-.668-4.907-1.117l-.25-.222.25-.221a7.287,7.287,0,0,1,3.766-1.073l.318-.024v.84a.823.823,0,1,0,1.646,0v-.84Zm4.558-7.435,1.117,1.744h-5.994v-4.488h6.023l-1.153,1.867A.828.828,0,0,0,1064.123,1125.967Z" transform="translate(6310.306 -1643.681)" fill="#bdbebf"/>
  </g>
</svg>
