<svg xmlns="http://www.w3.org/2000/svg" width="23" height="23" viewBox="0 0 23 23">
  <g id="그룹_1172" data-name="그룹 1172" transform="translate(68 -232)">
    <rect id="사각형_4638" data-name="사각형 4638" width="23" height="23" transform="translate(-68 232)" fill="#fff" opacity="0"/>
    <g id="그룹_1171" data-name="그룹 1171" transform="translate(-65.909 234.091)">
      <g id="패스_2326" data-name="패스 2326" transform="translate(0 0)" fill="none">
        <path d="M9.409,0A9.409,9.409,0,1,1,0,9.409,9.409,9.409,0,0,1,9.409,0Z" stroke="none"/>
        <path d="M 9.409090995788574 2.000001907348633 C 5.323700904846191 2.000001907348633 2.000001907348633 5.323700904846191 2.000001907348633 9.409090995788574 C 2.000001907348633 13.49448108673096 5.323700904846191 16.81818008422852 9.409090995788574 16.81818008422852 C 13.49448108673096 16.81818008422852 16.81818008422852 13.49448108673096 16.81818008422852 9.409090995788574 C 16.81818008422852 5.323700904846191 13.49448108673096 2.000001907348633 9.409090995788574 2.000001907348633 M 9.409090995788574 1.9073486328125e-06 C 14.6055908203125 1.9073486328125e-06 18.81818008422852 4.212591171264648 18.81818008422852 9.409090995788574 C 18.81818008422852 14.6055908203125 14.6055908203125 18.81818008422852 9.409090995788574 18.81818008422852 C 4.212591171264648 18.81818008422852 1.9073486328125e-06 14.6055908203125 1.9073486328125e-06 9.409090995788574 C 1.9073486328125e-06 4.212591171264648 4.212591171264648 1.9073486328125e-06 9.409090995788574 1.9073486328125e-06 Z" stroke="none" fill="#ccc"/>
      </g>
      <g id="그룹_1151" data-name="그룹 1151" transform="translate(4.145 4.028)">
        <path id="패스_2311" data-name="패스 2311" d="M5634.025,963.241a3.722,3.722,0,1,0-4.555,0,5.338,5.338,0,0,0-3.077,4.843v.554a.76.76,0,0,0,1.521,0v-.554a3.835,3.835,0,1,1,7.67,0v.554a.76.76,0,1,0,1.521,0v-.553A5.357,5.357,0,0,0,5634.025,963.241Zm-2.276-5.138a2.2,2.2,0,1,1-2.2,2.2A2.2,2.2,0,0,1,5631.75,958.1Z" transform="translate(-5626.394 -956.582)" fill="#ccc"/>
      </g>
    </g>
  </g>
</svg>
