<svg xmlns="http://www.w3.org/2000/svg" width="20" height="20" viewBox="0 0 20 20">
  <g id="장바구니" transform="translate(-9 -8)">
    <rect id="사각형_4473" data-name="사각형 4473" width="20" height="20" transform="translate(9 8)" fill="#f0d" opacity="0"/>
    <path id="패스_86820" data-name="패스 86820" d="M17.789,5.9a1.042,1.042,0,0,0-.051-.2c0-.007,0-.016-.007-.023L14.794.27a.437.437,0,0,0-.071-.093A.507.507,0,0,0,14.342,0H3.452a.507.507,0,0,0-.381.176A.44.44,0,0,0,3,.27L.062,5.684c0,.007,0,.015-.007.023a.508.508,0,0,0-.03.1A.507.507,0,0,0,0,5.9c0,.008,0,.015,0,.024a3.452,3.452,0,1,0,6.9,0c0-.008,0-.015,0-.024a1.042,1.042,0,0,0-.051-.2c0-.007,0-.016-.007-.023L4.316,1.029H8.383V11.9H8.375a3.037,3.037,0,0,0-3.034,3.033.514.514,0,0,0,.514.514h6.084a.514.514,0,0,0,.514-.514A3.037,3.037,0,0,0,9.42,11.9H9.411V1.029h4.067L10.952,5.684c0,.007,0,.015-.007.023a.512.512,0,0,0-.03.1.5.5,0,0,0-.02.1c0,.008,0,.015,0,.024a3.452,3.452,0,0,0,6.9,0c0-.008,0-.015,0-.024M3.452,8.353a2.428,2.428,0,0,1-2.369-1.91H5.821a2.428,2.428,0,0,1-2.369,1.91M5.526,5.415H1.378L3.452,1.593ZM9.42,12.927a2.009,2.009,0,0,1,1.938,1.491H6.436a2.009,2.009,0,0,1,1.938-1.491ZM14.342,1.593l2.074,3.821H12.268Zm0,6.759a2.428,2.428,0,0,1-2.369-1.91h4.738a2.428,2.428,0,0,1-2.369,1.91" transform="translate(10 10.458)" fill="#af8eff" stroke="#af8eff" stroke-width="0.5"/>
  </g>
</svg>
