<svg xmlns="http://www.w3.org/2000/svg" width="39.612" height="42.35" viewBox="0 0 39.612 42.35">
  <g id="그룹_1157" data-name="그룹 1157" transform="translate(-65.409 -434.229)">
    <path id="패스_88523" data-name="패스 88523" d="M168.627,460.858a.641.641,0,0,0-.524.336,5.038,5.038,0,0,0-3.186-4.172,9.269,9.269,0,0,0-3.9-.406c-1.136-.092-5.36,3.041-6.722,5.428-.054-.375-.331-1.2-.844-1.186-.41.01-.395.637-.3.919l-.011-.088a8.757,8.757,0,0,1,.108,2.549c.032.376.11,1.074.592,1.242a.6.6,0,0,0,.215.039c.23,3.952,1,5.334,2.892,6.753.144,3.536-.664,3.909-2.014,4.789l5.351,14.836.733-.727.732.727L167.1,477.06c-1.349-.879-2.158-1.252-2.015-4.786,1.894-1.421,2.666-2.8,2.9-6.76a.527.527,0,0,0,.256-.034c.481-.168.559-.866.592-1.242a8.736,8.736,0,0,1,.108-2.549l-.011.088C169.022,461.5,169.037,460.868,168.627,460.858Z" transform="translate(-75.807 -18.965)" fill="#528cc4"/>
    <path id="패스_88524" data-name="패스 88524" d="M156.991,478.849c1.382-.894,2.1-1.537,1.958-4.9l-.005-.126-.106-.08c-1.735-1.3-2.548-2.553-2.781-6.538l-.016-.273-.3.009a.3.3,0,0,1-.1-.021c-.321-.112-.378-.781-.4-1a5.694,5.694,0,0,1,.019-.914,3.8,3.8,0,0,0-.142-1.7l-.01,0a.677.677,0,0,1,.046-.464c.217,0,.474.521.535.945l.125.869.443-.775c1.293-2.263,5.338-5.271,6.4-5.271h.025l.027,0,.027,0c.343-.028.683-.042,1.01-.042A7.881,7.881,0,0,1,166.5,459a4.782,4.782,0,0,1,3,3.947l.122.743.433-.637c.042-.062.151-.205.256-.205a.649.649,0,0,1,.048.461l-.01,0a3.8,3.8,0,0,0-.142,1.7,5.688,5.688,0,0,1,.019.914c-.019.22-.077.89-.4,1a.293.293,0,0,1-.091.02l-.334-.052-.026.311c-.232,3.991-1.047,5.245-2.785,6.546l-.106.08-.005.126c-.136,3.359.577,4,1.959,4.9l-5.119,14.164-.606-.6-.607.6Z" transform="translate(-77.505 -20.662)" fill="#fff"/>
    <path id="패스_88525" data-name="패스 88525" d="M174.184,620.013l3.244-16.7c-4.663,2.576-7.653,2.594-12.194,0l3.258,16.7Z" transform="translate(-86.105 -146.457)" fill="#528cc4"/>
    <path id="패스_88526" data-name="패스 88526" d="M154.447,435.624c-3.927,2.59-4.742,8.34-.934,11.494a2.8,2.8,0,0,1,.3-4.051c1.328-1.31,6.091-1.421,8.01-4.272-.132,1.885-3.788,3.533-5.74,3.7,2.545.65,7.039-.695,7.655-2.314.27,1.44-2.279,2.352-4.072,2.768,1.632.152,4.832-.217,5.034-1.316a4.569,4.569,0,0,1,.658,4.877c1.787-1.546,2.764-5.269,2.041-7.884C165.959,434.428,158.35,432.833,154.447,435.624Z" transform="translate(-74.066 0)" fill="#528cc4"/>
    <path id="패스_88527" data-name="패스 88527" d="M90.9,603.314c-.317,1.474,1.144,1.81,1.144,3.224,0,1.316-1.3,2.383-1.768,3.624-.9,2.378-5.066,8.69-5.066,8.69-2.213-3.688-4.168-6.312-5.064-8.69-.468-1.24-1.769-2.308-1.768-3.624,0-1.414,1.462-1.75,1.144-3.224l-12.655,6.269a74.215,74.215,0,0,0-1.462,7.649,36.7,36.7,0,0,0,39.612,0,74.408,74.408,0,0,0-1.462-7.649Z" transform="translate(0 -146.457)" fill="#528cc4"/>
    <path id="패스_88528" data-name="패스 88528" d="M147.475,603.313l-3.165,4.631,3.018,1.591-1.478,1.7,7.709,7.62-6.084-15.538Z" transform="translate(-67.96 -146.457)" fill="#528cc4"/>
    <path id="패스_88529" data-name="패스 88529" d="M211.539,603.313l3.165,4.631-3.018,1.591,1.478,1.7-7.709,7.62,6.083-15.538Z" transform="translate(-120.627 -146.457)" fill="#528cc4"/>
  </g>
</svg>
