<svg xmlns="http://www.w3.org/2000/svg" width="16.064" height="16.2" viewBox="0 0 16.064 16.2">
  <g id="그룹_1157" data-name="그룹 1157" transform="translate(0 0)">
    <path id="패스_2322" data-name="패스 2322" d="M2124.729,1474.667h-4.106v-12.309h9.293v2.291a.973.973,0,0,0,1.946,0v-3.263a.973.973,0,0,0-.973-.973h-11.239a.973.973,0,0,0-.973.973v14.255a.973.973,0,0,0,.973.973h5.079a.973.973,0,1,0,0-1.946Z" transform="translate(-2118.677 -1460.413)" fill="#4c5a81"/>
    <path id="패스_2323" data-name="패스 2323" d="M2242.852,1554.676a.975.975,0,0,0-.454-.591l-5.222-3.015a.972.972,0,0,0-1.329.356l-2.977,5.156a.974.974,0,0,0-.045.885l1.612,3.593a.974.974,0,0,0,1.042.563l3.61-.578a.975.975,0,0,0,.689-.474l2.977-5.156A.975.975,0,0,0,2242.852,1554.676Zm-4.529,4.521-2.417.387-1.1-2.459,2.242-3.883,3.537,2.042Z" transform="translate(-2226.821 -1546.242)" fill="#4c5a81"/>
  </g>
</svg>
