<svg xmlns="http://www.w3.org/2000/svg" width="24.331" height="24.538" viewBox="0 0 24.331 24.538">
  <g id="그룹_1157" data-name="그룹 1157" transform="translate(0 0)">
    <path id="패스_2322" data-name="패스 2322" d="M2127.843,1482h-6.219V1463.36H2135.7v3.469a1.474,1.474,0,0,0,2.947,0v-4.943a1.474,1.474,0,0,0-1.473-1.474H2120.15a1.474,1.474,0,0,0-1.473,1.474v21.591a1.474,1.474,0,0,0,1.473,1.474h7.693a1.474,1.474,0,0,0,0-2.948Z" transform="translate(-2118.677 -1460.413)" fill="#8b80f8"/>
    <path id="패스_2323" data-name="패스 2323" d="M2248.056,1556.6a1.475,1.475,0,0,0-.687-.895l-7.91-4.567a1.473,1.473,0,0,0-2.013.54l-4.509,7.81a1.476,1.476,0,0,0-.069,1.34l2.442,5.442a1.475,1.475,0,0,0,1.578.852l5.468-.876a1.476,1.476,0,0,0,1.043-.718l4.509-7.81A1.478,1.478,0,0,0,2248.056,1556.6Zm-6.859,6.847-3.66.586-1.671-3.724,3.4-5.882,5.357,3.094Z" transform="translate(-2223.775 -1543.825)" fill="#8b80f8"/>
  </g>
</svg>
