<svg xmlns="http://www.w3.org/2000/svg" width="32" height="32" viewBox="0 0 32 32">
  <g id="icon03" transform="translate(-20 -462)">
    <g id="_56dp" data-name="56dp" transform="translate(20 462)">
      <rect id="사각형_8" data-name="사각형 8" width="32" height="32" rx="4" fill="#999"/>
    </g>
    <g id="그룹_1153" data-name="그룹 1153" transform="translate(-770.941 -476.041)">
      <rect id="사각형_4480" data-name="사각형 4480" width="6.692" height="2.976" transform="translate(801.532 946.324)" fill="#fff"/>
      <path id="패스_88534" data-name="패스 88534" d="M814.213,962.2H800.669a1.23,1.23,0,0,1-1.228-1.228V947.105a1.229,1.229,0,0,1,1.228-1.228h8.1a2.577,2.577,0,0,1,1.636.678l4.36,4.359a2.578,2.578,0,0,1,.678,1.636v8.426A1.23,1.23,0,0,1,814.213,962.2ZM800.669,946.8a.311.311,0,0,0-.307.307v13.871a.311.311,0,0,0,.307.307h13.544a.311.311,0,0,0,.307-.307V952.55a1.684,1.684,0,0,0-.408-.985l-4.36-4.36a1.684,1.684,0,0,0-.985-.408Z" transform="translate(0 0)" fill="#fff"/>
      <path id="패스_88535" data-name="패스 88535" d="M824.916,1001.425h-10.69a.457.457,0,0,1-.466-.447v-8a.457.457,0,0,1,.466-.447h10.69a.457.457,0,0,1,.466.447v8A.456.456,0,0,1,824.916,1001.425Zm-10.224-.894h9.758v-7.107h-9.758Z" transform="translate(-12.185 -39.22)" fill="#fff"/>
    </g>
  </g>
</svg>
