<svg xmlns="http://www.w3.org/2000/svg" width="25" height="25" viewBox="0 0 25 25">
  <g id="그룹_1167" data-name="그룹 1167" transform="translate(0.1 -0.5)">
    <rect id="사각형_4637" data-name="사각형 4637" width="25" height="25" transform="translate(-0.1 0.5)" fill="#fff" opacity="0"/>
    <g id="그룹_1153" data-name="그룹 1153" transform="translate(2.632 4.185)">
      <path id="패스_2312" data-name="패스 2312" d="M281.865,371.7a5.881,5.881,0,0,1-4.568-2.32l-.043-.053-.062.007a21.124,21.124,0,0,1-2.451.158c-2.768,0-7.454-.648-7.454-3.079V355.85c0-2.431,4.685-3.079,7.454-3.079s7.453.649,7.453,3.079v1.7l.116.01c3.221.264,5.745,3.365,5.745,7.059C288.055,368.523,285.278,371.7,281.865,371.7Zm0-12.372a4.077,4.077,0,0,0-1.548.312,4.39,4.39,0,0,0-.957.539,5.115,5.115,0,0,0-1.5,1.817c-.058.116-.11.234-.16.355a5.774,5.774,0,0,0-.313,1c-.035.163-.063.328-.084.5a5.911,5.911,0,0,0-.054.763,6.013,6.013,0,0,0,.068.873q.037.25.093.491a5.675,5.675,0,0,0,.5,1.353,5.058,5.058,0,0,0,1.561,1.8,4.18,4.18,0,0,0,2.394.773c2.547,0,4.62-2.371,4.62-5.286a5.057,5.057,0,0,0-4.153-5.26A4.123,4.123,0,0,0,281.865,359.329Zm-12.828,7.2c.514.4,2.367,1.165,5.7,1.165.446,0,.887-.015,1.348-.046l.178-.012-.072-.187a7.8,7.8,0,0,1-.384-1.361l-.022-.118-.105.005c-.462.024-.8.028-.943.028a20.1,20.1,0,0,1-3.963-.415,9.4,9.4,0,0,1-1.576-.485l-.167-.07v1.236Zm0-3.563.058.114a5.337,5.337,0,0,0,1.634.666,15.862,15.862,0,0,0,4.015.459c.291,0,.569-.008.839-.019l.111,0,.008-.126a8.062,8.062,0,0,1,.094-.81c.034-.2.078-.392.126-.583l.048-.191-.174.01c-.517.029-.9.033-1.053.033a20.066,20.066,0,0,1-3.963-.414,9.424,9.424,0,0,1-1.576-.484l-.167-.07Zm0-3.489.058.114a5.343,5.343,0,0,0,1.633.666,15.862,15.862,0,0,0,4.015.459,19.047,19.047,0,0,0,1.968-.1l.057-.006.033-.054c.124-.2.264-.393.4-.583a6.145,6.145,0,0,1,1.041-1.091l-.089-.258a20.893,20.893,0,0,1-3.412.3,20.419,20.419,0,0,1-3.76-.37,9.782,9.782,0,0,1-1.779-.529l-.167-.07Zm.058-3.472a6.786,6.786,0,0,0,1.84.719,18.068,18.068,0,0,0,7.616,0,7.607,7.607,0,0,0,1.862-.734c.258-.179.034-.259.034-.259-.513-.4-2.366-1.165-5.7-1.165s-5.19.762-5.7,1.165C269.037,355.733,268.837,355.8,269.093,356.007Z" transform="translate(-267.287 -352.771)" fill="#ccc"/>
      <g id="그룹_1152" data-name="그룹 1152" transform="translate(12.467 8.747)">
        <path id="패스_2313" data-name="패스 2313" d="M315.655,379.476a1.847,1.847,0,0,1,.529.722,1.771,1.771,0,0,1,.132.835,1.481,1.481,0,0,1-.274.73,1.448,1.448,0,0,1-.719.506,3.711,3.711,0,0,1-.747.208q-.368.06-.813.095c-.132.012-.244.019-.336.022l-.316.012h-.128a.68.68,0,0,0-.127.009v1.79c-.019.109-.042.222-.071.337a.409.409,0,0,1-.222.268.657.657,0,0,1-.255.061,1.388,1.388,0,0,1-.274-.009.651.651,0,0,1-.223-.065.346.346,0,0,1-.146-.169,1.545,1.545,0,0,1-.071-.177.8.8,0,0,1-.033-.247v-4.781a.621.621,0,0,1,.009-.112c.006-.035.013-.069.019-.1a.413.413,0,0,0,.028-.095.418.418,0,0,1,.028-.1.454.454,0,0,1,.042-.078.239.239,0,0,1,.062-.061A.428.428,0,0,1,311.9,379a.95.95,0,0,1,.3-.035h.019c.195-.011.412-.022.652-.03a4.2,4.2,0,0,1,.6.013c.088.011.17.019.245.021s.148.007.218.013l.227.018c.076.005.151.014.227.026s.121.02.175.025.109.015.165.026.105.023.166.035a.529.529,0,0,1,.165.061,1.288,1.288,0,0,1,.331.129Q315.513,379.382,315.655,379.476Zm-.567,1.427a.61.61,0,0,0-.09-.363.793.793,0,0,0-.279-.26,1.679,1.679,0,0,0-.407-.164,3.174,3.174,0,0,0-.453-.087c-.038,0-.09,0-.156,0l-.213-.008-.213-.009-.156,0a.614.614,0,0,0-.113-.009h-.151c.006.179.009.35.009.515v.531c-.006.1-.009.208-.009.312v.3l.585-.008q.228,0,.5-.026a2.511,2.511,0,0,0,.52-.1,1.222,1.222,0,0,0,.421-.225A.576.576,0,0,0,315.088,380.9Z" transform="translate(-311.562 -378.932)" fill="#8b80f8"/>
      </g>
    </g>
  </g>
</svg>
