<svg xmlns="http://www.w3.org/2000/svg" width="90" height="90" viewBox="0 0 90 90">
  <g id="img" transform="translate(-680 -515.5)">
    <path id="패스_513" data-name="패스 513" d="M725,605.5a45,45,0,1,1,45-45A45.051,45.051,0,0,1,725,605.5Zm0-81.818A36.818,36.818,0,1,0,761.818,560.5,36.859,36.859,0,0,0,725,523.682Z" fill="#8b80f8"/>
    <path id="패스_514" data-name="패스 514" d="M724.592,583.053A4.592,4.592,0,0,1,720,578.461V560.092a4.592,4.592,0,1,1,9.184,0v18.369A4.592,4.592,0,0,1,724.592,583.053Z" transform="translate(0.408 -0.971)" fill="#8b80f8"/>
    <path id="패스_515" data-name="패스 515" d="M724.592,548.684a4.586,4.586,0,1,1,3.249-1.343A4.666,4.666,0,0,1,724.592,548.684Z" transform="translate(0.408 0.245)" fill="#8b80f8"/>
  </g>
</svg>
