<svg xmlns="http://www.w3.org/2000/svg" width="24.84" height="22.156" viewBox="0 0 24.84 22.156">
  <g id="그룹_1167" data-name="그룹 1167" transform="translate(0)">
    <path id="패스_88521" data-name="패스 88521" d="M2234.094,2428.349h-2.187v-2.187a1,1,0,0,0-1.993,0v2.187h-2.187a1,1,0,0,0,0,1.993h2.188v2.188a1,1,0,1,0,1.993,0v-2.187h2.187a1,1,0,1,0,0-1.993Z" transform="translate(-2218.49 -2416.198)" fill="#8b80f8"/>
    <path id="패스_88522" data-name="패스 88522" d="M2144.183,2316.892h-5.736l-1.246-2.162a4.054,4.054,0,0,0-3.5-2.025h-6.269a4.047,4.047,0,0,0-4.042,4.042v14.071a4.047,4.047,0,0,0,4.042,4.043h8.935l7.844-.046a4.053,4.053,0,0,0,4.019-4.043v-9.836A4.048,4.048,0,0,0,2144.183,2316.892Zm2.049,13.88a2.055,2.055,0,0,1-2.038,2.05l-16.766.046a2.052,2.052,0,0,1-2.049-2.05v-14.071a2.052,2.052,0,0,1,2.049-2.049h6.269a2.057,2.057,0,0,1,1.777,1.026l1.532,2.663a1,1,0,0,0,.864.5h6.313a2.052,2.052,0,0,1,2.049,2.05Z" transform="translate(-2123.386 -2312.705)" fill="#8b80f8"/>
  </g>
</svg>
