<svg xmlns="http://www.w3.org/2000/svg" width="17.556" height="17.556" viewBox="0 0 17.556 17.556">
  <g id="합치기_2" data-name="합치기 2" transform="translate(1608.586 17.586)" fill="#fff">
    <path d="M -1592.029418945312 -0.5292506814002991 C -1592.162841796875 -0.5292506814002991 -1592.288330078125 -0.5812807083129883 -1592.3828125 -0.6757606863975525 L -1599.4541015625 -7.747050762176514 L -1599.8076171875 -8.100610733032227 L -1600.1611328125 -7.747050762176514 L -1607.232421875 -0.675750732421875 C -1607.326904296875 -0.5812807083129883 -1607.452392578125 -0.5292506814002991 -1607.5859375 -0.5292506814002991 C -1607.71923828125 -0.5292506814002991 -1607.844848632812 -0.5812807083129883 -1607.939331054688 -0.6757706999778748 C -1608.033813476562 -0.7703106999397278 -1608.0859375 -0.896040678024292 -1608.085815429688 -1.029780745506287 C -1608.085693359375 -1.16308069229126 -1608.033813476562 -1.28821074962616 -1607.939697265625 -1.382130742073059 L -1600.868041992188 -8.453850746154785 L -1600.514404296875 -8.807400703430176 L -1600.868041992188 -9.160950660705566 L -1607.939331054688 -16.23225021362305 C -1608.033813476562 -16.32674026489258 -1608.085815429688 -16.45223999023438 -1608.085815429688 -16.58565139770508 C -1608.085815429688 -16.71906089782715 -1608.033813476562 -16.84456062316895 -1607.939331054688 -16.93904113769531 C -1607.844848632812 -17.03352165222168 -1607.71923828125 -17.08555030822754 -1607.5859375 -17.08555030822754 C -1607.452392578125 -17.08555030822754 -1607.326904296875 -17.03352165222168 -1607.232421875 -16.93904113769531 L -1600.1611328125 -9.867751121520996 L -1599.8076171875 -9.514190673828125 L -1599.4541015625 -9.867751121520996 L -1592.3828125 -16.93905067443848 C -1592.288330078125 -17.03352165222168 -1592.162841796875 -17.08555030822754 -1592.029296875 -17.08555030822754 C -1591.89599609375 -17.08555030822754 -1591.770385742188 -17.03352165222168 -1591.675903320312 -16.93903160095215 C -1591.481201171875 -16.74419975280762 -1591.481201171875 -16.42710113525391 -1591.676025390625 -16.23221015930176 L -1598.747314453125 -9.160961151123047 L -1599.100952148438 -8.807400703430176 L -1598.747314453125 -8.453840255737305 L -1591.675903320312 -1.382540702819824 C -1591.581420898438 -1.288190722465515 -1591.529541015625 -1.162930727005005 -1591.529541015625 -1.02949070930481 C -1591.529541015625 -0.8958306908607483 -1591.58154296875 -0.7701907157897949 -1591.676025390625 -0.6757106781005859 C -1591.770385742188 -0.5812807083129883 -1591.89599609375 -0.5292506814002991 -1592.029418945312 -0.5292506814002991 Z" stroke="none"/>
    <path d="M -1592.02978515625 -1.029263257980347 L -1594.130249023438 -3.129662036895752 L -1592.030151367188 -1.029310703277588 C -1592.030029296875 -1.029297828674316 -1592.029907226562 -1.029276728630066 -1592.02978515625 -1.029263257980347 M -1592.029418945312 -0.02925070375204086 C -1592.28515625 -0.02925070375204086 -1592.541015625 -0.12690070271492 -1592.736328125 -0.3222007155418396 L -1599.8076171875 -7.393500804901123 L -1606.87890625 -0.3222007155418396 C -1607.269653320312 0.06849250942468643 -1607.90234375 0.06830615550279617 -1608.292846679688 -0.3222007155418396 C -1608.683471679688 -0.7128006815910339 -1608.683471679688 -1.346400737762451 -1608.292846679688 -1.736100673675537 L -1601.221557617188 -8.807400703430176 L -1608.292846679688 -15.87870025634766 C -1608.683471679688 -16.26930046081543 -1608.683471679688 -16.90200042724609 -1608.292846679688 -17.29260063171387 C -1607.902221679688 -17.68310546875 -1607.26953125 -17.68329238891602 -1606.87890625 -17.29260063171387 L -1599.8076171875 -10.22130107879639 L -1592.736328125 -17.29260063171387 C -1592.345703125 -17.68329238891602 -1591.713012695312 -17.68310737609863 -1591.322387695312 -17.29260063171387 C -1590.931884765625 -16.90200042724609 -1590.931884765625 -16.26930046081543 -1591.322387695312 -15.87870025634766 L -1598.393798828125 -8.807400703430176 L -1591.322387695312 -1.736100673675537 C -1590.931884765625 -1.346400737762451 -1590.931884765625 -0.7128006815910339 -1591.322387695312 -0.3222007155418396 C -1591.517700195312 -0.12690070271492 -1591.773559570312 -0.02925070375204086 -1592.029418945312 -0.02925070375204086 Z" stroke="none" fill="#fff"/>
  </g>
</svg>
