<svg xmlns="http://www.w3.org/2000/svg" width="32" height="32" viewBox="0 0 32 32">
  <g id="icon02" transform="translate(-20 -418)">
    <g id="그룹_1153" data-name="그룹 1153" transform="translate(-233 55)">
      <g id="_56dp" data-name="56dp" transform="translate(253 363)">
        <rect id="사각형_8" data-name="사각형 8" width="32" height="32" rx="4" fill="#8b80f8"/>
      </g>
      <g id="그룹_517" data-name="그룹 517" transform="translate(259 369)">
        <text id="_" data-name="%" transform="translate(9.401 13.499)" fill="#fff" font-size="10" font-family="SegoeUI, Segoe UI"><tspan x="-4.092" y="0">%</tspan></text>
        <path id="패스_88513" data-name="패스 88513" d="M569.27,566.652l-2.573-1.994-.441-3.225a.7.7,0,0,0-.723-.606l-3.253.126-2.411-2.187a.7.7,0,0,0-.943,0l-2.411,2.187-3.253-.126a.7.7,0,0,0-.723.606l-.441,3.225-2.573,1.994a.7.7,0,0,0-.164.929l1.735,2.754-.689,3.182a.7.7,0,0,0,.472.817l3.1.994,1.517,2.88a.7.7,0,0,0,.887.323L559.4,577.3l3.013,1.231a.7.7,0,0,0,.531-1.3l-3.279-1.339a.7.7,0,0,0-.531,0l-2.689,1.1-1.354-2.57a.7.7,0,0,0-.407-.341l-2.766-.887.615-2.839a.7.7,0,0,0-.092-.523l-1.549-2.458,2.3-1.78a.7.7,0,0,0,.265-.46l.393-2.878,2.9.112a.705.705,0,0,0,.5-.182l2.151-1.952,2.152,1.952a.7.7,0,0,0,.5.182l2.9-.112.393,2.878a.7.7,0,0,0,.265.46l2.3,1.78-1.548,2.458a.7.7,0,0,0-.092.523l.615,2.839-2.766.887a.7.7,0,0,0,.429,1.337l3.373-1.082a.7.7,0,0,0,.472-.817l-.689-3.182,1.735-2.754A.7.7,0,0,0,569.27,566.652Z" transform="translate(-549.256 -558.583)" fill="#fff"/>
      </g>
    </g>
  </g>
</svg>
