<svg xmlns="http://www.w3.org/2000/svg" width="22" height="22" viewBox="0 0 22 22">
  <g id="그룹_1265" data-name="그룹 1265" transform="translate(-7351 539)">
    <rect id="사각형_4732" data-name="사각형 4732" width="22" height="22" transform="translate(7351 -539)" fill="#fff" opacity="0"/>
    <path id="패스_86836" data-name="패스 86836" d="M739.814,1135.039l-2.563-2.33a.816.816,0,0,0-1.1,0l-2.563,2.33a.817.817,0,0,0,1.1,1.209l1.131-1.028.02.514a5.7,5.7,0,1,1-8.889-4.513,5.7,5.7,0,0,1,5.243-.6,5.644,5.644,0,0,1,1.443.817.817.817,0,1,0,1-1.288,7.315,7.315,0,0,0-4.49-1.543,7.392,7.392,0,0,0-6.86,4.7,7.341,7.341,0,1,0,14.177,2.354l-.023-.571,1.269,1.153a.815.815,0,0,0,.549.212h0a.817.817,0,0,0,.55-1.421Z" transform="translate(6631.202 -1663.608)" fill="#bdbebf"/>
  </g>
</svg>
