<svg xmlns="http://www.w3.org/2000/svg" width="25.435" height="25.077" viewBox="0 0 25.435 25.077">
  <g id="그룹_1158" data-name="그룹 1158" transform="translate(0 0)">
    <path id="패스_2324" data-name="패스 2324" d="M4361.916,1466.78a8.493,8.493,0,0,0-14.909,3.192c-.064,0-.128-.01-.193-.01a8.489,8.489,0,0,0-5.818,14.683c.027.211.045.545.058.786.061,1.16.129,2.476,1.278,3,1.219.557,2.434-.2,3.5-.875a6.95,6.95,0,0,1,1.065-.6,8.513,8.513,0,0,0,8.023-5.95l.229.184c.986.792,2.1,1.69,3.38,1.279,1.2-.386,1.423-1.685,1.618-2.83.041-.238.1-.568.148-.773a8.481,8.481,0,0,0,1.616-12.088Zm-15.1,17.183a8.088,8.088,0,0,0-2.771,1.173,3.32,3.32,0,0,0-.818-2.506,5.5,5.5,0,1,1,3.59,1.333Zm13.894-11.272a5.5,5.5,0,0,1-2.384,3.916,3.312,3.312,0,0,0-1.106,2.393,12.062,12.062,0,0,0-1.941-1.31,8.513,8.513,0,0,0-5.323-7.119,5.5,5.5,0,0,1,10.755,2.121Z" transform="translate(-4338.312 -1463.546)" fill="#8b80f8"/>
  </g>
</svg>
