<svg xmlns="http://www.w3.org/2000/svg" width="20" height="20" viewBox="0 0 20 20">
  <g id="heart_1_" data-name="heart (1)" transform="translate(-32 -397)">
    <rect id="사각형_4464" data-name="사각형 4464" width="20" height="20" transform="translate(32 397)" fill="#f0d" opacity="0"/>
    <path id="합치기_1" data-name="합치기 1" d="M581.493-1058.917c-2.963-2.48-6.489-6.158-6.489-9.593A5.307,5.307,0,0,1,580.1-1074a4.956,4.956,0,0,1,3.962,2.042A4.956,4.956,0,0,1,588.02-1074a5.308,5.308,0,0,1,5.1,5.489c0,3.435-3.53,7.113-6.49,9.593a3.985,3.985,0,0,1-2.569.936A3.985,3.985,0,0,1,581.493-1058.917Z" transform="translate(-542 1473)" fill="#4c5a81"/>
  </g>
</svg>
