<svg xmlns="http://www.w3.org/2000/svg" width="20.961" height="22" viewBox="0 0 20.961 22">
  <g id="_01_align_center" data-name="01 align center" transform="translate(-0.494 0.004)">
    <path id="패스_86819" data-name="패스 86819" d="M21.354,14.844,18.972,6.257A8.541,8.541,0,0,0,2.4,6.689L.559,14.981a2.749,2.749,0,0,0,2.683,3.345H6.547a4.582,4.582,0,0,0,8.98,0h3.18a2.749,2.749,0,0,0,2.648-3.482ZM11.037,20.159a2.749,2.749,0,0,1-2.58-1.833h5.161a2.749,2.749,0,0,1-2.58,1.833Zm8.4-4.027a.91.91,0,0,1-.733.362H3.242a.916.916,0,0,1-.894-1.115L4.19,7.086A6.708,6.708,0,0,1,17.2,6.745l2.382,8.587a.91.91,0,0,1-.149.8Z" transform="translate(0 0)" fill="#fff"/>
  </g>
</svg>
