<svg xmlns="http://www.w3.org/2000/svg" width="19.558" height="17.535" viewBox="0 0 19.558 17.535">
  <g id="그룹_1373" data-name="그룹 1373" transform="translate(-1676.264 -1057.532)">
    <path id="패스_88541" data-name="패스 88541" d="M1692.356,1060.688h-4.081l-.818-1.42v0a3.474,3.474,0,0,0-3-1.733h-4.725a3.469,3.469,0,0,0-3.465,3.465v10.6a3.469,3.469,0,0,0,3.465,3.465h6.734l5.914-.034a3.474,3.474,0,0,0,3.445-3.466v-7.413A3.47,3.47,0,0,0,1692.356,1060.688Zm1.127,10.879a1.129,1.129,0,0,1-1.12,1.127l-5.907.034h-6.727a1.127,1.127,0,0,1-1.126-1.126V1061a1.127,1.127,0,0,1,1.126-1.126h4.725a1.129,1.129,0,0,1,.976.564l1.155,2.007a1.169,1.169,0,0,0,1.013.586h4.757a1.128,1.128,0,0,1,1.127,1.127Z" transform="translate(0 0)" fill="#4c5a81"/>
    <path id="패스_88542" data-name="패스 88542" d="M1855.072,1084.314c.014.021.027.042.039.063v0C1855.1,1084.357,1855.087,1084.335,1855.072,1084.314Z" transform="translate(-167.655 -25.111)" fill="#4c5a81"/>
  </g>
</svg>
