<svg xmlns="http://www.w3.org/2000/svg" width="32" height="32" viewBox="0 0 32 32">
  <g id="icon01" transform="translate(-20 -303)">
    <g id="_56dp" data-name="56dp" transform="translate(20 303)">
      <rect id="사각형_8" data-name="사각형 8" width="32" height="32" rx="4" fill="#999"/>
    </g>
    <g id="그룹_1155" data-name="그룹 1155" transform="translate(-140.789 0.211)">
      <g id="그룹_1154" data-name="그룹 1154" transform="translate(167.941 309.941)">
        <path id="패스_88536" data-name="패스 88536" d="M126.881,543.439a4.127,4.127,0,1,1,4.127-4.127A4.132,4.132,0,0,1,126.881,543.439Zm0-7.475a3.348,3.348,0,1,0,3.348,3.348A3.352,3.352,0,0,0,126.881,535.964Z" transform="translate(-117.777 -530.29)" fill="#fff"/>
        <path id="패스_88537" data-name="패스 88537" d="M146.531,556.659a2.305,2.305,0,1,1-2.305-2.305A2.305,2.305,0,0,1,146.531,556.659Z" transform="translate(-135.142 -547.64)" fill="#fff"/>
        <path id="패스_88538" data-name="패스 88538" d="M105.473,526.382H103.36a1.166,1.166,0,0,1-1.165-1.165v-.956a7.244,7.244,0,0,1-1.077-.477l-.646.646a1.165,1.165,0,0,1-1.647,0l-1.494-1.494a1.165,1.165,0,0,1,0-1.647l.72-.72a7.241,7.241,0,0,1-.412-1.054h-.97a1.166,1.166,0,0,1-1.165-1.165v-2.113a1.166,1.166,0,0,1,1.165-1.165h1.039a7.249,7.249,0,0,1,.44-1.03l-.693-.693a1.164,1.164,0,0,1,0-1.647l1.494-1.494a1.167,1.167,0,0,1,1.647,0l.71.71a7.248,7.248,0,0,1,1.064-.438v-.935a1.166,1.166,0,0,1,1.165-1.165h2.113a1.166,1.166,0,0,1,1.165,1.165v.935a7.237,7.237,0,0,1,1.111.463l.611-.611a1.165,1.165,0,0,1,1.647,0l1.494,1.494a1.165,1.165,0,0,1,0,1.647l-.617.617a7.205,7.205,0,0,1,.473,1.157h.806a1.166,1.166,0,0,1,1.165,1.165v2.113a1.166,1.166,0,0,1-1.165,1.165h-.851a7.244,7.244,0,0,1-.5,1.159l.564.564a1.165,1.165,0,0,1,0,1.647l-1.494,1.494a1.167,1.167,0,0,1-1.647,0l-.626-.626a7.2,7.2,0,0,1-1.148.445v.844A1.166,1.166,0,0,1,105.473,526.382Zm-4.43-3.636a.46.46,0,0,1,.241.068,6.3,6.3,0,0,0,1.5.668.462.462,0,0,1,.331.443v1.292a.241.241,0,0,0,.241.241h2.113a.241.241,0,0,0,.241-.241v-1.2a.462.462,0,0,1,.355-.449,6.316,6.316,0,0,0,1.581-.611.462.462,0,0,1,.549.078l.865.865a.242.242,0,0,0,.341,0l1.494-1.494a.241.241,0,0,0,0-.341l-.813-.813a.462.462,0,0,1-.068-.566,6.311,6.311,0,0,0,.683-1.582.462.462,0,0,1,.445-.338h1.193a.242.242,0,0,0,.241-.241v-2.113a.242.242,0,0,0-.241-.241h-1.155a.461.461,0,0,1-.447-.347,6.305,6.305,0,0,0-.648-1.585.461.461,0,0,1,.074-.557l.861-.861a.241.241,0,0,0,0-.341l-1.494-1.494a.247.247,0,0,0-.341,0l-.856.856a.462.462,0,0,1-.559.073,6.313,6.313,0,0,0-1.542-.642.462.462,0,0,1-.342-.446v-1.28a.242.242,0,0,0-.241-.241h-2.113a.241.241,0,0,0-.241.241v1.28a.462.462,0,0,1-.343.446,6.311,6.311,0,0,0-1.5.617.462.462,0,0,1-.555-.075l-.953-.953a.242.242,0,0,0-.341,0l-1.494,1.494a.241.241,0,0,0,0,.341l.938.939a.461.461,0,0,1,.072.56,6.313,6.313,0,0,0-.626,1.465.462.462,0,0,1-.444.336H96.669a.241.241,0,0,0-.241.241v2.113a.241.241,0,0,0,.241.241H97.99a.462.462,0,0,1,.448.35,6.305,6.305,0,0,0,.583,1.495.462.462,0,0,1-.079.548l-.958.958a.241.241,0,0,0,0,.341l1.494,1.494a.247.247,0,0,0,.341,0l.9-.9A.461.461,0,0,1,101.043,522.746Z" transform="translate(-95.504 -508.382)" fill="#fff"/>
      </g>
    </g>
  </g>
</svg>
