<svg xmlns="http://www.w3.org/2000/svg" width="21.304" height="13.874" viewBox="0 0 21.304 13.874">
  <g id="그룹_1156" data-name="그룹 1156" transform="translate(0 0)">
    <g id="그룹_1166" data-name="그룹 1166" transform="translate(0 0)">
      <g id="그룹_1154" data-name="그룹 1154" transform="translate(0 0)">
        <path id="패스_2314" data-name="패스 2314" d="M287.406,533h-20.53v-1.6h19.139V520.437h1.392Z" transform="translate(-266.102 -519.126)" fill="#8b80f8"/>
        <path id="패스_2315" data-name="패스 2315" d="M264.554,516.5v12.9h20.264V516.5ZM268.2,518.5l-1.912,2.2v-2.2Zm14.878,8.907h-16.79v-4.456l3.877-4.451h12.913Z" transform="translate(-264.554 -516.504)" fill="#ccc"/>
      </g>
      <g id="그룹_1155" data-name="그룹 1155" transform="translate(2.706 4.786)">
        <path id="패스_2316" data-name="패스 2316" d="M279.223,533.426a.308.308,0,0,1,0,.259.662.662,0,0,1-.173.23,1.3,1.3,0,0,1-.272.183,1.324,1.324,0,0,1-.29.109,1.44,1.44,0,0,1-.317.03,1.605,1.605,0,0,1-.333-.041,1.577,1.577,0,0,1-.324-.114,1.4,1.4,0,0,1-.29-.185.928.928,0,0,1-.249-.317,1.62,1.62,0,0,1-.13-.4,2.3,2.3,0,0,1-.043-.422c0-.141,0-.275.011-.4a1.7,1.7,0,0,1,.069-.352,1.8,1.8,0,0,1,.153-.358,1.706,1.706,0,0,1,.237-.326,1.316,1.316,0,0,1,.327-.256.935.935,0,0,1,.317-.112,1.416,1.416,0,0,1,.356-.014,1.258,1.258,0,0,1,.342.078.829.829,0,0,1,.276.166.975.975,0,0,1,.153.178.829.829,0,0,1,.116.233.357.357,0,0,1,0,.221.232.232,0,0,1-.185.139.223.223,0,0,1-.114.007.242.242,0,0,1-.091-.041.446.446,0,0,1-.077-.071c-.025-.027-.047-.055-.069-.082a.558.558,0,0,0-.256-.18.589.589,0,0,0-.29-.023.642.642,0,0,0-.464.358,1.749,1.749,0,0,0-.116.34,1.821,1.821,0,0,0-.048.375,1.532,1.532,0,0,0,.034.367.855.855,0,0,0,.135.315.613.613,0,0,0,.18.178.711.711,0,0,0,.231.1.68.68,0,0,0,.249.009.74.74,0,0,0,.244-.082.483.483,0,0,0,.08-.053l.089-.071c.03-.025.061-.047.093-.068a.327.327,0,0,1,.1-.046.288.288,0,0,1,.18,0A.249.249,0,0,1,279.223,533.426Z" transform="translate(-276.805 -530.913)" fill="#8b80f8"/>
        <path id="패스_2317" data-name="패스 2317" d="M284.829,531.129a1.381,1.381,0,0,1,.555-.1,1,1,0,0,1,.445.125,1.091,1.091,0,0,1,.336.3,1.682,1.682,0,0,1,.226.42,2.018,2.018,0,0,1,.1.365,2.522,2.522,0,0,1,.03.753,2.03,2.03,0,0,1-.066.338,1.479,1.479,0,0,1-.064.192,1.639,1.639,0,0,1-.087.173.973.973,0,0,1-.295.32,1.179,1.179,0,0,1-.395.174,1.193,1.193,0,0,1-.3.034,1.3,1.3,0,0,1-.306-.041,1.274,1.274,0,0,1-.29-.114,1.1,1.1,0,0,1-.253-.19,1.178,1.178,0,0,1-.233-.317,1.8,1.8,0,0,1-.142-.379,2.275,2.275,0,0,1-.064-.4,2.714,2.714,0,0,1,0-.383,1.975,1.975,0,0,1,.067-.361,1.606,1.606,0,0,1,.153-.37,1.5,1.5,0,0,1,.244-.322A.943.943,0,0,1,284.829,531.129Zm1.068,1.954a1.733,1.733,0,0,0,.046-.484,1.817,1.817,0,0,0-.087-.507,1.1,1.1,0,0,0-.126-.258.551.551,0,0,0-.178-.171.469.469,0,0,0-.24-.059.708.708,0,0,0-.306.082.506.506,0,0,0-.171.137.728.728,0,0,0-.114.2,1.435,1.435,0,0,0-.068.228,1.38,1.38,0,0,0-.03.228,2.244,2.244,0,0,0,0,.248,1.686,1.686,0,0,0,.03.26,1.374,1.374,0,0,0,.071.247.73.73,0,0,0,.123.208.624.624,0,0,0,.276.189.564.564,0,0,0,.313.016.552.552,0,0,0,.383-.333A.838.838,0,0,0,285.9,533.083Z" transform="translate(-281.617 -530.971)" fill="#8b80f8"/>
        <path id="패스_2318" data-name="패스 2318" d="M294.63,531.191a4.813,4.813,0,0,1,.032.509q0,.29-.007.584c-.008.2-.022.382-.043.557a2.867,2.867,0,0,1-.078.422c-.021.064-.047.13-.075.2a1.42,1.42,0,0,1-.094.185.909.909,0,0,1-.178.217,1.151,1.151,0,0,1-.231.16,1.286,1.286,0,0,1-.265.1,1.245,1.245,0,0,1-.276.04,1.179,1.179,0,0,1-1.077-.607,1.464,1.464,0,0,1-.128-.317,1.728,1.728,0,0,1-.057-.345c-.008-.119-.011-.241-.011-.365,0-.058,0-.13,0-.216s0-.177,0-.27v-.271c0-.089,0-.163,0-.224v-.13c0-.047,0-.094.007-.142a.8.8,0,0,1,.025-.137.411.411,0,0,1,.055-.121.237.237,0,0,1,.114-.087.431.431,0,0,1,.153-.027.378.378,0,0,1,.153.032.293.293,0,0,1,.119.091.257.257,0,0,1,.032.073.575.575,0,0,1,.014.082c.006.1.01.215.011.343s0,.252,0,.372,0,.231-.007.331,0,.175,0,.224a3.98,3.98,0,0,0,.028.5.81.81,0,0,0,.128.367.406.406,0,0,0,.214.169.621.621,0,0,0,.247.022.577.577,0,0,0,.231-.084.5.5,0,0,0,.185-.208.541.541,0,0,0,.046-.114,1.022,1.022,0,0,0,.027-.118q.018-.173.032-.4c.009-.153.017-.311.023-.472s.009-.32.009-.475,0-.3,0-.42a.374.374,0,0,1,.05-.15.34.34,0,0,1,.1-.105.332.332,0,0,1,.187-.046.28.28,0,0,1,.155.048.428.428,0,0,1,.1.094A.4.4,0,0,1,294.63,531.191Z" transform="translate(-287.026 -530.892)" fill="#8b80f8"/>
        <path id="패스_2319" data-name="패스 2319" d="M302.248,531.292a.967.967,0,0,1,.256.381,1.009,1.009,0,0,1,.064.441.828.828,0,0,1-.132.386.706.706,0,0,1-.347.267,1.683,1.683,0,0,1-.361.11c-.119.021-.249.038-.393.05-.064.006-.118.01-.162.011l-.153.007h-.062a.241.241,0,0,0-.062.005v.945c-.009.058-.021.117-.034.178a.214.214,0,0,1-.107.141.3.3,0,0,1-.123.032.677.677,0,0,1-.132,0,.3.3,0,0,1-.107-.034.179.179,0,0,1-.071-.089.764.764,0,0,1-.034-.094.442.442,0,0,1-.016-.13v-2.525a.324.324,0,0,1,.005-.059l.009-.055a.226.226,0,0,0,.013-.05.261.261,0,0,1,.014-.051.251.251,0,0,1,.021-.041.111.111,0,0,1,.03-.032.2.2,0,0,1,.071-.041.441.441,0,0,1,.144-.018h.009c.094-.006.2-.012.315-.016a1.878,1.878,0,0,1,.288.007,1.175,1.175,0,0,0,.119.011l.105.007.109.009c.037,0,.073.008.11.014s.059.011.085.014.053.008.08.014l.08.018a.238.238,0,0,1,.08.032.585.585,0,0,1,.16.068C302.158,531.228,302.2,531.258,302.248,531.292Zm-.274.753a.342.342,0,0,0-.043-.192.4.4,0,0,0-.134-.137.757.757,0,0,0-.2-.087,1.48,1.48,0,0,0-.219-.046l-.076,0-.1,0-.1,0-.076,0a.285.285,0,0,0-.055,0H300.9q0,.141,0,.271v.281c0,.055,0,.109,0,.164v.16l.283,0a2.415,2.415,0,0,0,.242-.014,1.1,1.1,0,0,0,.251-.055.569.569,0,0,0,.2-.119A.315.315,0,0,0,301.974,532.045Z" transform="translate(-292.449 -530.956)" fill="#8b80f8"/>
        <path id="패스_2320" data-name="패스 2320" d="M308.274,531.129a1.382,1.382,0,0,1,.555-.1,1.01,1.01,0,0,1,.446.125,1.1,1.1,0,0,1,.335.3,1.706,1.706,0,0,1,.226.42,2.051,2.051,0,0,1,.105.365,2.54,2.54,0,0,1,.043.381,2.494,2.494,0,0,1-.014.372,1.929,1.929,0,0,1-.066.338,1.4,1.4,0,0,1-.064.192,1.525,1.525,0,0,1-.087.173.967.967,0,0,1-.295.32,1.176,1.176,0,0,1-.395.174,1.191,1.191,0,0,1-.3.034,1.3,1.3,0,0,1-.6-.155,1.074,1.074,0,0,1-.253-.19,1.172,1.172,0,0,1-.233-.317,1.819,1.819,0,0,1-.141-.379,2.239,2.239,0,0,1-.064-.4,2.714,2.714,0,0,1,0-.383,1.991,1.991,0,0,1,.066-.361,1.621,1.621,0,0,1,.153-.37,1.5,1.5,0,0,1,.244-.322A.939.939,0,0,1,308.274,531.129Zm1.069,1.954a1.745,1.745,0,0,0,.045-.484,1.827,1.827,0,0,0-.087-.507,1.1,1.1,0,0,0-.126-.258.552.552,0,0,0-.178-.171.468.468,0,0,0-.24-.059.707.707,0,0,0-.306.082.511.511,0,0,0-.171.137.727.727,0,0,0-.114.2,1.437,1.437,0,0,0-.069.228,1.419,1.419,0,0,0-.029.228,2.181,2.181,0,0,0,0,.248,1.643,1.643,0,0,0,.03.26,1.354,1.354,0,0,0,.071.247.709.709,0,0,0,.123.208.621.621,0,0,0,.276.189.564.564,0,0,0,.313.016.553.553,0,0,0,.383-.333A.847.847,0,0,0,309.343,533.083Z" transform="translate(-297.247 -530.971)" fill="#8b80f8"/>
        <path id="패스_2321" data-name="패스 2321" d="M318.069,533.793a1.318,1.318,0,0,1-.02.164.222.222,0,0,1-.089.141.237.237,0,0,1-.123.055.36.36,0,0,1-.135-.007.47.47,0,0,1-.126-.05.3.3,0,0,1-.1-.085,4.285,4.285,0,0,1-.286-.395l-.263-.409-.383-.58c-.052-.082-.107-.174-.165-.276s-.117-.2-.178-.285l-.014,1.744v.041a.433.433,0,0,1-.025.144.282.282,0,0,1-.084.12.258.258,0,0,1-.119.05.3.3,0,0,1-.19-.013.3.3,0,0,1-.118-.1.393.393,0,0,1-.059-.148.555.555,0,0,1-.007-.167v-.077l.009-.357.005-.662q0-.146,0-.3v-.312c0-.131,0-.269,0-.415s.01-.283.016-.411a.445.445,0,0,1,.05-.179.2.2,0,0,1,.1-.109.3.3,0,0,1,.13-.041.423.423,0,0,1,.139,0l.046.02.046.026.043.036a.345.345,0,0,1,.039.041.457.457,0,0,1,.041.048c.012.017.024.033.036.048a.56.56,0,0,0,.027.05.344.344,0,0,0,.032.046l.05.073,1.055,1.661v-.3c0-.1,0-.2,0-.3s0-.208-.006-.318q0-.192,0-.411c0-.146.005-.283.012-.411a.446.446,0,0,1,.046-.178.2.2,0,0,1,.078-.1.352.352,0,0,1,.26-.05.27.27,0,0,1,.119.055.274.274,0,0,1,.027.032.173.173,0,0,1,.023.041.408.408,0,0,1,.027.105.54.54,0,0,1,.014.114q0,.571,0,1.164t.007,1.164c0,.043,0,.084,0,.126A.859.859,0,0,1,318.069,533.793Z" transform="translate(-302.659 -530.86)" fill="#8b80f8"/>
      </g>
    </g>
  </g>
</svg>
