<svg xmlns="http://www.w3.org/2000/svg" width="17.794" height="17.794" viewBox="0 0 17.794 17.794">
  <path id="shopping-bag" d="M15.2,4.6H13.345V4.448a4.448,4.448,0,0,0-8.9,0V4.6H2.595A2.627,2.627,0,0,0,0,7.192v6.524a4.114,4.114,0,0,0,4.078,4.078h9.638a4.114,4.114,0,0,0,4.078-4.078V7.192A2.627,2.627,0,0,0,15.2,4.6ZM6.673,4.448a2.224,2.224,0,1,1,4.448,0V4.6H6.673Zm8.9,9.268a1.836,1.836,0,0,1-1.854,1.854H4.078a1.836,1.836,0,0,1-1.854-1.854V7.192a.35.35,0,0,1,.371-.371H4.448v.964a1.112,1.112,0,0,0,2.224,0V6.821h4.448v.964a1.112,1.112,0,0,0,2.224,0V6.821H15.2a.35.35,0,0,1,.371.371Z" fill="#8b80f8"/>
</svg>
