<svg xmlns="http://www.w3.org/2000/svg" width="20" height="20" viewBox="0 0 20 20">
  <g id="그룹_611" data-name="그룹 611" transform="translate(-1773 -713)">
    <rect id="사각형_4473" data-name="사각형 4473" width="20" height="20" transform="translate(1773 713)" fill="none" opacity="0.2"/>
    <g id="그룹_1153" data-name="그룹 1153" transform="translate(815.19 129.277)">
      <path id="패스_86820" data-name="패스 86820" d="M972.275,602.057H961.6a2.615,2.615,0,0,1-2.612-2.612V594.22a2.615,2.615,0,0,1,2.612-2.612h1.511l2.69-6.052a1.12,1.12,0,0,1,1.023-.665,3.362,3.362,0,0,1,3.359,3.359v1.866h3.1a2.583,2.583,0,0,1,.407.029,2.616,2.616,0,0,1,2.193,2.975l-1.031,6.719A2.623,2.623,0,0,1,972.275,602.057Zm-7.316-2.239h7.3a.376.376,0,0,0,.386-.317l1.03-6.719a.373.373,0,0,0-.313-.424l-4.3,0a1.12,1.12,0,0,1-1.12-1.12v-2.985a1.119,1.119,0,0,0-.481-.919l-2.5,5.635Zm-3.359-5.971a.373.373,0,0,0-.373.373v5.225a.374.374,0,0,0,.373.373h1.12v-5.971Z" transform="translate(0 0)" fill="#4c5a81"/>
    </g>
  </g>
</svg>
