<svg xmlns="http://www.w3.org/2000/svg" width="86.132" height="86.131" viewBox="0 0 86.132 86.131">
  <g id="그룹_1358" data-name="그룹 1358" transform="translate(-504 -339.5)">
    <path id="패스_521" data-name="패스 521" d="M547.067,425.631h-.025a43.066,43.066,0,0,1,.024-86.131h.025a42.805,42.805,0,0,1,17.5,3.728,3.915,3.915,0,1,1-3.187,7.153,35.015,35.015,0,0,0-14.321-3.051h-.021a35.235,35.235,0,0,0-.02,70.471h.021A35.237,35.237,0,0,0,582.3,382.585v-3.6a3.915,3.915,0,1,1,7.83,0v3.6a43.066,43.066,0,0,1-43.065,43.043Z" transform="translate(0)" fill="#8f8d93"/>
    <path id="패스_522" data-name="패스 522" d="M547.66,394.543a3.918,3.918,0,0,1-2.769-1.146l-11.745-11.745a3.916,3.916,0,0,1,5.538-5.538l8.974,8.976,36.383-36.419a3.915,3.915,0,1,1,5.54,5.534l-39.15,39.19a3.914,3.914,0,0,1-2.769,1.148Z" transform="translate(-0.595 -0.17)" fill="#8b80f8"/>
  </g>
</svg>
