<svg xmlns="http://www.w3.org/2000/svg" width="19.56" height="17.538" viewBox="0 0 19.56 17.538">
  <g id="그룹_1392" data-name="그룹 1392" transform="translate(-2116.132 -1057.532)">
    <path id="패스_88553" data-name="패스 88553" d="M2221.661,1168.275h-1.23v-1.23a1.17,1.17,0,0,0-2.339,0v1.23h-1.23a1.17,1.17,0,1,0,0,2.339h1.23v1.23a1.17,1.17,0,1,0,2.339,0v-1.23h1.23a1.17,1.17,0,1,0,0-2.339Z" transform="translate(-93.349 -101.584)" fill="#4c5a81"/>
    <path id="패스_88554" data-name="패스 88554" d="M2132.227,1060.688h-4.082l-.817-1.42a3.476,3.476,0,0,0-3-1.736H2119.6a3.469,3.469,0,0,0-3.465,3.466V1071.6a3.469,3.469,0,0,0,3.465,3.466h6.735l5.915-.034a3.474,3.474,0,0,0,3.445-3.466v-7.414A3.47,3.47,0,0,0,2132.227,1060.688Zm1.126,10.88a1.13,1.13,0,0,1-1.12,1.127l-5.908.034H2119.6a1.128,1.128,0,0,1-1.126-1.126V1061a1.128,1.128,0,0,1,1.126-1.126h4.726a1.13,1.13,0,0,1,.977.564l1.155,2.007a1.168,1.168,0,0,0,1.013.586h4.758a1.128,1.128,0,0,1,1.126,1.127Z" transform="translate(0)" fill="#4c5a81"/>
  </g>
</svg>
