<svg xmlns="http://www.w3.org/2000/svg" width="17.44" height="15.555" viewBox="0 0 17.44 15.555">
  <g id="그룹_1222" data-name="그룹 1222" transform="translate(-1677.268 -2312.708)">
    <path id="패스_88523" data-name="패스 88523" d="M1691.869,2315.648h-4.027l-.874-1.518a2.846,2.846,0,0,0-2.46-1.422h-4.4a2.841,2.841,0,0,0-2.839,2.838v9.879a2.842,2.842,0,0,0,2.839,2.838h6.273l5.507-.032a2.846,2.846,0,0,0,2.822-2.839v-6.906A2.842,2.842,0,0,0,1691.869,2315.648Zm1.439,9.745a1.443,1.443,0,0,1-1.431,1.439l-5.5.032h-6.269a1.441,1.441,0,0,1-1.439-1.439v-9.879a1.44,1.44,0,0,1,1.439-1.439h4.4a1.443,1.443,0,0,1,1.247.72l1.076,1.869a.7.7,0,0,0,.606.35h4.432a1.441,1.441,0,0,1,1.439,1.44Z" fill="#8b80f8"/>
  </g>
</svg>
