<svg xmlns="http://www.w3.org/2000/svg" width="18" height="17.908" viewBox="0 0 18 17.908">
  <g id="그룹_1182" data-name="그룹 1182" transform="translate(246.018 -1985.398)">
    <path id="패스_2327" data-name="패스 2327" d="M-229.358,2013.968h-15.319a1.339,1.339,0,0,1-1.34-1.334v-13.012a1.339,1.339,0,0,1,1.34-1.335h15.319a1.339,1.339,0,0,1,1.34,1.335v13.012A1.339,1.339,0,0,1-229.358,2013.968Zm-15.319-14.68a.335.335,0,0,0-.335.334v13.012a.335.335,0,0,0,.335.334h15.319a.335.335,0,0,0,.335-.334v-13.012a.335.335,0,0,0-.335-.334Z" transform="translate(0 -10.662)" fill="#ccc"/>
    <path id="패스_2328" data-name="패스 2328" d="M-228.521,2021.4h-16.995a.511.511,0,0,1-.5-.518.511.511,0,0,1,.5-.518h16.995a.511.511,0,0,1,.5.518A.511.511,0,0,1-228.521,2021.4Z" transform="translate(0 -29.114)" fill="#ccc"/>
    <path id="사각형_4650" data-name="사각형 4650" d="M.828,0h0a.828.828,0,0,1,.828.828v2.7a.828.828,0,0,1-.828.828h0A.828.828,0,0,1,0,3.526V.828A.828.828,0,0,1,.828,0Z" transform="translate(-242.239 1985.398)" fill="#ccc"/>
    <path id="사각형_4651" data-name="사각형 4651" d="M.828,0h0a.828.828,0,0,1,.828.828v2.7a.828.828,0,0,1-.828.828h0A.828.828,0,0,1,0,3.526V.828A.828.828,0,0,1,.828,0Z" transform="translate(-233.454 1985.398)" fill="#ccc"/>
    <g id="그룹_1181" data-name="그룹 1181" transform="translate(-243.615 1994.141)">
      <rect id="사각형_4652" data-name="사각형 4652" width="2.019" height="2.019" transform="translate(0 0)" fill="#8b80f8"/>
      <rect id="사각형_4653" data-name="사각형 4653" width="2.019" height="2.019" transform="translate(3.725 0)" fill="#8b80f8"/>
      <rect id="사각형_4654" data-name="사각형 4654" width="2.019" height="2.019" transform="translate(7.451 0)" fill="#8b80f8"/>
      <rect id="사각형_4655" data-name="사각형 4655" width="2.019" height="2.019" transform="translate(11.176 0)" fill="#8b80f8"/>
      <rect id="사각형_4656" data-name="사각형 4656" width="2.019" height="2.019" transform="translate(0 3.786)" fill="#8b80f8"/>
      <rect id="사각형_4657" data-name="사각형 4657" width="2.019" height="2.019" transform="translate(3.725 3.786)" fill="#8b80f8"/>
      <rect id="사각형_4658" data-name="사각형 4658" width="2.019" height="2.019" transform="translate(7.451 3.786)" fill="#8b80f8"/>
      <rect id="사각형_4659" data-name="사각형 4659" width="2.019" height="2.019" transform="translate(11.176 3.786)" fill="#8b80f8"/>
    </g>
  </g>
</svg>
