<svg xmlns="http://www.w3.org/2000/svg" width="32" height="32" viewBox="0 0 32 32">
  <g id="icon02" transform="translate(-20 -414)">
    <g id="_56dp" data-name="56dp" transform="translate(20 414)">
      <rect id="사각형_8" data-name="사각형 8" width="32" height="32" rx="4" fill="#999"/>
    </g>
    <g id="그룹_1139" data-name="그룹 1139" transform="translate(-635.899 -893.548)">
      <g id="그룹_1131" data-name="그룹 1131" transform="translate(679.807 1322.327)">
        <path id="패스_88516" data-name="패스 88516" d="M775,1349.3a.566.566,0,0,1,0-1.133l2.291,0h0a.566.566,0,0,1,0,1.133l-2.291,0Z" transform="translate(-774.433 -1348.17)" fill="#fff"/>
      </g>
      <g id="그룹_1132" data-name="그룹 1132" transform="translate(679.04 1325.094)">
        <path id="패스_88517" data-name="패스 88517" d="M772.14,1366.959a.564.564,0,0,1-.266-.067l-1.876-1a.566.566,0,0,1,.532-1l1.876,1a.566.566,0,0,1-.266,1.067Z" transform="translate(-769.698 -1364.828)" fill="#fff"/>
      </g>
      <g id="그룹_1133" data-name="그룹 1133" transform="translate(679.086 1318.383)">
        <path id="패스_88518" data-name="패스 88518" d="M770.549,1326.725a.566.566,0,0,1-.308-1.042l1.784-1.156a.566.566,0,0,1,.616.951l-1.784,1.155A.562.562,0,0,1,770.549,1326.725Z" transform="translate(-769.982 -1324.437)" fill="#fff"/>
      </g>
      <g id="그룹_1134" data-name="그룹 1134" transform="translate(662.88 1317.215)">
        <path id="패스_88519" data-name="패스 88519" d="M685.646,1328.362a1.125,1.125,0,0,1-.338-.053l-4.464-1.393a4.589,4.589,0,0,0-1.1-.168h-6.175a1.228,1.228,0,0,1-1.214-1.24v-5.417a1.228,1.228,0,0,1,1.214-1.24h6.175a4.509,4.509,0,0,0,1.1-.17l4.465-1.413a1.125,1.125,0,0,1,.342-.054,1.02,1.02,0,0,1,1.01,1.072v9A1.022,1.022,0,0,1,685.646,1328.362Zm-12.078-8.352a.084.084,0,0,0-.081.083v5.417a.084.084,0,0,0,.081.083h6.175a5.675,5.675,0,0,1,1.432.218l4.35,1.358v-8.756l-4.349,1.377a5.61,5.61,0,0,1-1.433.222Z" transform="translate(-672.355 -1317.215)" fill="#fff"/>
      </g>
      <g id="그룹_1135" data-name="그룹 1135" transform="translate(664.297 1325.808)">
        <path id="패스_88520" data-name="패스 88520" d="M683.082,1372.947H681.6a.485.485,0,0,1-.485-.485v-3.1a.485.485,0,0,1,.485-.485h1.486a.485.485,0,0,1,.485.485v3.1A.485.485,0,0,1,683.082,1372.947Zm-1-.971h.515v-2.133h-.515Z" transform="translate(-681.111 -1368.873)" fill="#fff"/>
      </g>
      <g id="그룹_1136" data-name="그룹 1136" transform="translate(670.616 1318.899)">
        <path id="패스_88521" data-name="패스 88521" d="M719.508,1335.189a.485.485,0,0,1-.485-.485v-6.6a.485.485,0,1,1,.971,0v6.6A.485.485,0,0,1,719.508,1335.189Z" transform="translate(-719.023 -1327.621)" fill="#fff"/>
      </g>
      <g id="그룹_1137" data-name="그룹 1137" transform="translate(668.854 1318.899)">
        <path id="패스_88522" data-name="패스 88522" d="M708.831,1335.189a.485.485,0,0,1-.485-.485v-6.6a.485.485,0,1,1,.971,0v6.6A.485.485,0,0,1,708.831,1335.189Z" transform="translate(-708.346 -1327.621)" fill="#fff"/>
      </g>
      <g id="그룹_1138" data-name="그룹 1138" transform="translate(661.051 1320.077)">
        <path id="패스_88523" data-name="패스 88523" d="M663.284,1339.717h-1.667a.566.566,0,0,1-.566-.566v-4.25a.566.566,0,0,1,.566-.566h1.667a.566.566,0,1,1,0,1.133h-1.1v3.118h1.1a.566.566,0,1,1,0,1.133Z" transform="translate(-661.051 -1334.334)" fill="#fff"/>
      </g>
    </g>
  </g>
</svg>
