<svg xmlns="http://www.w3.org/2000/svg" width="32" height="32" viewBox="0 0 32 32">
  <g id="icon04" transform="translate(-20 -508)">
    <g id="_56dp" data-name="56dp" transform="translate(20 508)">
      <rect id="사각형_8" data-name="사각형 8" width="32" height="32" rx="4" fill="#999"/>
    </g>
    <g id="그룹_1142" data-name="그룹 1142" transform="translate(-250.73 -392.407)">
      <g id="그룹_1140" data-name="그룹 1140" transform="translate(278.73 906.62)">
        <path id="패스_88524" data-name="패스 88524" d="M291.131,939.745h-4.965a.612.612,0,0,1-.362-.119,25,25,0,0,1-4.041-4.139l-2.034-2.757-.023-.033-.09-.138c-.589-.907-1.478-2.278-.335-3.434a2.06,2.06,0,0,1,2.864.085l.03.023,1.324,1.079,0-9.088a2,2,0,0,1,3.977,0v3.326a1.939,1.939,0,0,1,.751-.151,1.983,1.983,0,0,1,1.655.9,1.947,1.947,0,0,1,1.094-.336,1.992,1.992,0,0,1,1.745,1.055,1.945,1.945,0,0,1,1-.278,2.028,2.028,0,0,1,2,2.053v4.643c0,.011,0,.023,0,.035-.01.186-.27,4.586-2.516,7.066a.615.615,0,0,1-.451.2Zm-4.761-1.282h1.445c1.579,0,3.849,0,4.66,0,1.725-2.117,1.991-5.776,2.009-6.046v-4.623a.751.751,0,1,0-1.5,0v2.172a.623.623,0,1,1-1.246,0v-2.948a.752.752,0,1,0-1.5,0v2.707a.623.623,0,1,1-1.246,0v-3.275a.752.752,0,1,0-1.5,0v3.06a.623.623,0,1,1-1.246,0v-8.289a.786.786,0,0,0-1.484,0l-.005,10.413a.642.642,0,0,1-.352.576.611.611,0,0,1-.658-.075l-2.318-1.89c-.742-.529-.98-.495-1.262-.21-.35.353-.183.762.5,1.81l.08.124,2.014,2.731A24.887,24.887,0,0,0,286.37,938.463Z" transform="translate(-278.73 -919.414)" fill="#fff"/>
      </g>
      <g id="그룹_1141" data-name="그룹 1141" transform="translate(282.36 904.516)">
        <path id="패스_88525" data-name="패스 88525" d="M296.926,906.948a.431.431,0,0,1-.124-.019.424.424,0,0,1-.281-.529,3,3,0,0,1,5.576,0,.424.424,0,1,1-.812.242,2.165,2.165,0,0,0-3.953,0A.424.424,0,0,1,296.926,906.948Z" transform="translate(-296.502 -904.516)" fill="#fff"/>
      </g>
    </g>
  </g>
</svg>
