<svg xmlns="http://www.w3.org/2000/svg" width="32" height="32" viewBox="0 0 32 32">
  <g id="그룹_1169" data-name="그룹 1169" transform="translate(-360 -1367)">
    <circle id="타원_150" data-name="타원 150" cx="16" cy="16" r="16" transform="translate(360 1367)" fill="#dad9d9"/>
    <path id="패스_88596" data-name="패스 88596" d="M-254.495,211.938h-.94v-2.058a4.315,4.315,0,0,0-4.31-4.31,4.315,4.315,0,0,0-4.31,4.31v2.058h-.94v7.931h10.5Zm-4.737,3.753a.4.4,0,0,1,.009.044v1.192a.523.523,0,0,1-.523.523.523.523,0,0,1-.523-.523v-1.192c0-.015.008-.029.009-.044a.979.979,0,0,1-.469-.834.983.983,0,0,1,.983-.982.983.983,0,0,1,.982.982A.978.978,0,0,1-259.232,215.691Zm2.456-3.753h-5.939v-2.058a2.973,2.973,0,0,1,2.97-2.969,2.973,2.973,0,0,1,2.97,2.969Z" transform="translate(635.995 1169.429)"/>
  </g>
</svg>
