<svg xmlns="http://www.w3.org/2000/svg" width="13" height="13" viewBox="0 0 13 13">
  <g id="그룹_1361" data-name="그룹 1361" transform="translate(-856 -515.5)">
    <path id="패스_524" data-name="패스 524" d="M862.5,528.5A6.5,6.5,0,1,1,869,522,6.507,6.507,0,0,1,862.5,528.5Zm0-11.818A5.318,5.318,0,1,0,867.818,522,5.324,5.324,0,0,0,862.5,516.682Z" fill="#333"/>
    <path id="패스_525" data-name="패스 525" d="M886.828,540.635a.645.645,0,0,1-.2-1.256c.386-.131,1.493-.656,1.493-1.322a1.289,1.289,0,0,0-2.505-.431.645.645,0,1,1-1.216-.428,2.578,2.578,0,0,1,5.011.859c0,1.7-2.132,2.464-2.375,2.545A.643.643,0,0,1,886.828,540.635Z" transform="translate(-24.38 -17.176)" fill="#333"/>
    <path id="패스_526" data-name="패스 526" d="M896.645,576.789a.644.644,0,1,1,.456-.189A.656.656,0,0,1,896.645,576.789Z" transform="translate(-34.145 -51.217)" fill="#333"/>
  </g>
</svg>
