<svg xmlns="http://www.w3.org/2000/svg" width="22" height="22" viewBox="0 0 22 22">
  <g id="그룹_1263" data-name="그룹 1263" transform="translate(-7306 556)">
    <rect id="사각형_4731" data-name="사각형 4731" width="22" height="22" transform="translate(7306 -556)" fill="#fff" opacity="0"/>
    <path id="패스_86834" data-name="패스 86834" d="M1222.718,1488.451l-1.3,5.211v6.8a2.446,2.446,0,0,0,2.443,2.443h10.931a2.446,2.446,0,0,0,2.443-2.443v-6.8l-1.3-5.211Zm7.34,1.47h4.723l.486,1.946h-5.21Zm-6.193,0h4.723v1.946h-5.21Zm11.9,9.854a1.658,1.658,0,0,1-1.656,1.656h-9.565a1.658,1.658,0,0,1-1.656-1.656v-6.438h5.7v2.733h1.47v-2.733h5.7Z" transform="translate(6087.585 -2040.451)" fill="#bdbebf"/>
  </g>
</svg>
