<svg xmlns="http://www.w3.org/2000/svg" width="41.667" height="41.665" viewBox="0 0 41.667 41.665">
  <g id="그룹_1362" data-name="그룹 1362" transform="translate(0)">
    <path id="패스_527" data-name="패스 527" d="M341.927,119.667H303.572a1.655,1.655,0,0,0-1.656,1.656v38.354a1.654,1.654,0,0,0,1.656,1.656h38.356a1.654,1.654,0,0,0,1.656-1.656V121.323A1.655,1.655,0,0,0,341.927,119.667Zm-1.655,38.354H305.227V122.978h35.045Z" transform="translate(-301.916 -119.667)" fill="#ededed"/>
    <circle id="타원_128" data-name="타원 128" cx="4.207" cy="4.207" r="4.207" transform="translate(8.591 8.278)" fill="#ededed"/>
    <path id="패스_528" data-name="패스 528" d="M307.408,148.2h25.644a1.655,1.655,0,0,0,1.656-1.656V138.61a1.654,1.654,0,0,0-.485-1.17l-6.846-6.849a1.655,1.655,0,0,0-2.341,0l-8.241,8.241-2.266-2.268a1.654,1.654,0,0,0-2.341,0l-5.95,5.95a1.648,1.648,0,0,0-.485,1.17v2.857A1.655,1.655,0,0,0,307.408,148.2Z" transform="translate(-299.401 -112.824)" fill="#ededed"/>
  </g>
</svg>
