<svg id="alarm-clock" xmlns="http://www.w3.org/2000/svg" width="21.107" height="21.094" viewBox="0 0 21.107 21.094">
  <path id="패스_86807" data-name="패스 86807" d="M12.513,4.152a13.465,13.465,0,0,0-1.919,0,10.534,10.534,0,0,0-7.022,17.39l.031.038a12.982,12.982,0,0,0,1.532,1.432,10.481,10.481,0,0,0,12.847,0,13.009,13.009,0,0,0,1.553-1.471,10.534,10.534,0,0,0-7.022-17.39Zm-9.594,10.5a8.635,8.635,0,1,1,8.635,8.635,8.635,8.635,0,0,1-8.635-8.635Z" transform="translate(-1 -4.117)" fill="#fdf6da"/>
  <path id="패스_86810" data-name="패스 86810" d="M12.919,11.359v-4.4a.959.959,0,1,0-1.919,0v4.8a.959.959,0,0,0,.281.678l2.878,2.878a.959.959,0,1,0,1.357-1.357Z" transform="translate(-1.406 -2.177)" fill="#fdf6da"/>
</svg>
